shantell_bounce--extrabold.ufo
<glyph name="exclam" format="2">
	<unicode hex="0021"/>
	<advance width="337"/>
	<outline>
		<contour>
			<point x="249" y="736.4004796954" type="curve" smooth="yes"/>
			<point x="249" y="704.2460081507"/>
			<point x="244" y="667.498040671"/>
			<point x="244" y="623.4004796954" type="curve" smooth="yes"/>
			<point x="244" y="561.4004796954"/>
			<point x="250" y="497.4004796954"/>
			<point x="250" y="458.4004796954" type="curve" smooth="yes"/>
			<point x="250" y="400.4004796954"/>
			<point x="223" y="372.4004796954"/>
			<point x="180" y="372.4004796954" type="curve" smooth="yes"/>
			<point x="133" y="372.4004796954"/>
			<point x="102" y="392.4004796954"/>
			<point x="93" y="439.4004796954" type="curve" smooth="yes"/>
			<point x="82" y="499.4004796954"/>
			<point x="77" y="539.4004796954"/>
			<point x="77" y="607.4004796954" type="curve" smooth="yes"/>
			<point x="77" y="659.5358963621"/>
			<point x="83.8959158515" y="721.1475090415"/>
			<point x="82" y="789.4004796954" type="curve" smooth="yes"/>
			<point x="80" y="828.4004796954"/>
			<point x="93" y="854.4004796954"/>
			<point x="134" y="854.4004796954" type="curve" smooth="yes"/>
			<point x="205" y="854.4004796954"/>
			<point x="249" y="820.4004796954"/>
		</contour>
		<contour>
			<point x="186" y="123.4004796954" type="curve" smooth="yes"/>
			<point x="243" y="123.4004796954"/>
			<point x="273" y="150.4004796954"/>
			<point x="273" y="193.4004796954" type="curve" smooth="yes"/>
			<point x="273" y="248.4004796954"/>
			<point x="235" y="301.4004796954"/>
			<point x="153" y="301.4004796954" type="curve" smooth="yes"/>
			<point x="100" y="301.4004796954"/>
			<point x="64" y="272.4004796954"/>
			<point x="64" y="212.4004796954" type="curve" smooth="yes"/>
			<point x="64" y="155.4004796954"/>
			<point x="110" y="123.4004796954"/>
		</contour>
	</outline>
</glyph>
<glyph name="ampersand" format="2">
	<unicode hex="0026"/>
	<advance width="713"/>
	<outline>
		<contour>
			<point x="429" y="568.4105874847"/>
			<point x="398" y="600.4105874847"/>
			<point x="308" y="600.4105874847" type="curve" smooth="yes"/>
			<point x="243" y="600.4105874847"/>
			<point x="208" y="580.59926673"/>
			<point x="208" y="550.4105874847" type="curve" smooth="yes"/>
			<point x="208" y="522.7466530585"/>
			<point x="223" y="505.4105874847"/>
			<point x="390" y="425.4105874847" type="curve" smooth="yes"/>
			<point x="652" y="299.4105874847"/>
			<point x="679" y="215.4105874847"/>
			<point x="679" y="93.4105874847" type="curve" smooth="yes"/>
			<point x="679" y="14.4105874847"/>
			<point x="643" y="-105.5894125153"/>
			<point x="544" y="-105.5894125153" type="curve" smooth="yes"/>
			<point x="498" y="-105.5894125153"/>
			<point x="469" y="-79.5894125153"/>
			<point x="469" y="-32.5894125153" type="curve" smooth="yes"/>
			<point x="469" y="21.4105874847"/>
			<point x="509" y="26.4105874847"/>
			<point x="509" y="88.4105874847" type="curve" smooth="yes"/>
			<point x="509" y="152.4105874847"/>
			<point x="469" y="204.4105874847"/>
			<point x="248" y="313.4105874847" type="curve" smooth="yes"/>
			<point x="60" y="406.4105874847"/>
			<point x="38" y="480.4105874847"/>
			<point x="38" y="554.4105874847" type="curve" smooth="yes"/>
			<point x="38" y="660.4105874847"/>
			<point x="113" y="770.4105874847"/>
			<point x="304" y="770.4105874847" type="curve" smooth="yes"/>
			<point x="383" y="770.4105874847"/>
			<point x="442" y="758.4105874847"/>
			<point x="502" y="731.4105874847" type="curve" smooth="yes"/>
			<point x="534" y="716.4105874847"/>
			<point x="552" y="685.4105874847"/>
			<point x="552" y="652.4105874847" type="curve" smooth="yes"/>
			<point x="552" y="606.4105874847"/>
			<point x="511" y="568.4105874847"/>
			<point x="466" y="568.4105874847" type="curve" smooth="yes"/>
		</contour>
		<contour>
			<point x="254" y="344.4105874847" type="curve" smooth="yes"/>
			<point x="226" y="308.4105874847"/>
			<point x="218" y="291.4105874847"/>
			<point x="218" y="262.4105874847" type="curve" smooth="yes"/>
			<point x="218" y="228.4105874847"/>
			<point x="247" y="211.4105874847"/>
			<point x="277" y="211.4105874847" type="curve" smooth="yes"/>
			<point x="366" y="211.4105874847"/>
			<point x="437" y="292.4105874847"/>
			<point x="539" y="471.4105874847" type="curve" smooth="yes"/>
			<point x="553" y="498.4105874847"/>
			<point x="565" y="515.4105874847"/>
			<point x="592" y="515.4105874847" type="curve" smooth="yes"/>
			<point x="637" y="515.4105874847"/>
			<point x="680" y="479.4105874847"/>
			<point x="680" y="422.4105874847" type="curve" smooth="yes"/>
			<point x="680" y="408.4105874847"/>
			<point x="673" y="377.4105874847"/>
			<point x="651" y="343.4105874847" type="curve" smooth="yes"/>
			<point x="490" y="93.4105874847"/>
			<point x="400" y="50.4105874847"/>
			<point x="263" y="50.4105874847" type="curve" smooth="yes"/>
			<point x="146" y="50.4105874847"/>
			<point x="48" y="122.4105874847"/>
			<point x="48" y="242.4105874847" type="curve" smooth="yes"/>
			<point x="48" y="329.4105874847"/>
			<point x="89" y="386.4105874847"/>
			<point x="144" y="422.4105874847" type="curve" smooth="yes"/>
			<point x="179" y="445.4105874847"/>
			<point x="214" y="449.4105874847"/>
			<point x="247" y="424.4105874847" type="curve" smooth="yes"/>
			<point x="266" y="410.4105874847"/>
			<point x="271" y="366.4105874847"/>
		</contour>
	</outline>
</glyph>
<glyph name="parenright" format="2">
	<unicode hex="0029"/>
	<advance width="514"/>
	<image fileName="parenleft.png" xScale="2.5963710802" yScale="2.5963710802" xOffset="-2052.7459756108" yOffset="-485.3762351949" color="0,0,0,0.18426"/>
	<outline>
		<contour>
			<point x="68" y="-287.4511383833" type="curve" smooth="yes"/>
			<point x="189" y="-184.4511383833"/>
			<point x="269" y="-56.4511383833"/>
			<point x="269" y="108.5488616167" type="curve" smooth="yes"/>
			<point x="269" y="291.5488616167"/>
			<point x="200" y="409.5488616167"/>
			<point x="87" y="484.5488616167" type="curve" smooth="yes"/>
			<point x="42" y="514.5488616167"/>
			<point x="20" y="545.5488616167"/>
			<point x="20" y="580.5488616167" type="curve" smooth="yes"/>
			<point x="20" y="623.5488616167"/>
			<point x="58" y="653.5488616167"/>
			<point x="107" y="653.5488616167" type="curve" smooth="yes"/>
			<point x="144" y="653.5488616167"/>
			<point x="163" y="648.5488616167"/>
			<point x="194" y="628.5488616167" type="curve" smooth="yes"/>
			<point x="342" y="534.5488616167"/>
			<point x="445" y="348.5488616167"/>
			<point x="445" y="108.5488616167" type="curve" smooth="yes"/>
			<point x="445" y="-100.4511383833"/>
			<point x="350" y="-277.4511383833"/>
			<point x="203" y="-381.4511383833" type="curve" smooth="yes"/>
			<point x="168" y="-406.4511383833"/>
			<point x="135" y="-417.4511383833"/>
			<point x="109" y="-417.4511383833" type="curve" smooth="yes"/>
			<point x="74" y="-417.4511383833"/>
			<point x="32" y="-400.4511383833"/>
			<point x="32" y="-354.4511383833" type="curve" smooth="yes"/>
			<point x="32" y="-326.4511383833"/>
			<point x="44" y="-309.4511383833"/>
		</contour>
	</outline>
</glyph>
<glyph name="slash" format="2">
	<unicode hex="002F"/>
	<advance width="455"/>
	<outline>
		<contour>
			<point x="506" y="638.2938171508"/>
			<point x="545" y="548.2938171508"/>
			<point x="487" y="456.2938171508" type="curve" smooth="yes"/>
			<point x="353" y="242.2938171508"/>
			<point x="258" y="5.2938171508"/>
			<point x="225" y="-281.7061828492" type="curve" smooth="yes"/>
			<point x="219" y="-338.7061828492"/>
			<point x="187" y="-369.7061828492"/>
			<point x="137" y="-369.7061828492" type="curve" smooth="yes"/>
			<point x="74" y="-369.7061828492"/>
			<point x="39" y="-318.7061828492"/>
			<point x="46" y="-254.7061828492" type="curve" smooth="yes"/>
			<point x="80" y="38.2938171508"/>
			<point x="205" y="380.2938171508"/>
			<point x="325" y="553.2938171508" type="curve" smooth="yes"/>
			<point x="365" y="611.2938171508"/>
			<point x="392" y="638.2938171508"/>
			<point x="434" y="638.2938171508" type="curve" smooth="yes"/>
		</contour>
	</outline>
</glyph>
<glyph name="one" format="2">
	<unicode hex="0031"/>
	<advance width="700"/>
	<outline>
		<contour>
			<point x="161" y="-29.8211667983" type="curve" smooth="yes"/>
			<point x="233" y="-29.8211667983"/>
			<point x="418.6808510638" y="-22.8211667983"/>
			<point x="528" y="-22.8211667983" type="curve" smooth="yes"/>
			<point x="622" y="-22.8211667983"/>
			<point x="658" y="-62.8211667983"/>
			<point x="660" y="-117.8211667983" type="curve" smooth="yes"/>
			<point x="662" y="-163.8211667983"/>
			<point x="632" y="-196.8211667983"/>
			<point x="541" y="-196.8211667983" type="curve" smooth="yes"/>
			<point x="325" y="-196.8211667983"/>
			<point x="236" y="-205.8211667983"/>
			<point x="188" y="-205.8211667983" type="curve" smooth="yes"/>
			<point x="68" y="-205.8211667983"/>
			<point x="45" y="-152.4406358248"/>
			<point x="45" y="-101.8211667983" type="curve" smooth="yes"/>
			<point x="45" y="-59.5354525126"/>
			<point x="79" y="-29.8211667983"/>
		</contour>
		<contour>
			<point x="121" y="414.1788332017" type="curve" smooth="yes"/>
			<point x="197" y="422.1788332017"/>
			<point x="260" y="451.1788332017"/>
			<point x="302" y="489.1788332017" type="curve" smooth="yes"/>
			<point x="321" y="506.1788332017"/>
			<point x="343" y="519.1788332017"/>
			<point x="375" y="519.1788332017" type="curve" smooth="yes"/>
			<point x="447" y="519.1788332017"/>
			<point x="498.6738295556" y="453.1113662928"/>
			<point x="477" y="382.1788332017" type="curve" smooth="yes"/>
			<point x="429" y="202.1788332017"/>
			<point x="433" y="2.1788332017"/>
			<point x="433" y="-33.8211667983" type="curve" smooth="yes"/>
			<point x="433" y="-71.8211667983"/>
			<point x="410" y="-100.8211667983"/>
			<point x="367" y="-100.8211667983" type="curve" smooth="yes"/>
			<point x="300" y="-100.8211667983"/>
			<point x="260" y="-47.8211667983"/>
			<point x="260" y="18.1788332017" type="curve" smooth="yes"/>
			<point x="260" y="127.1788332017"/>
			<point x="275" y="239.1788332017"/>
			<point x="296" y="340.1788332017" type="curve"/>
			<point x="328" y="312.1788332017" type="line"/>
			<point x="287.9930727825" y="278.3268178638"/>
			<point x="214" y="254.1788332017"/>
			<point x="151" y="254.1788332017" type="curve" smooth="yes"/>
			<point x="81" y="254.1788332017"/>
			<point x="49" y="301.158214645"/>
			<point x="49" y="347.1788332017" type="curve" smooth="yes"/>
			<point x="49" y="380.1150034145"/>
			<point x="70" y="408.1788332017"/>
		</contour>
	</outline>
</glyph>
<glyph name="two" format="2">
	<unicode hex="0032"/>
	<advance width="700"/>
	<outline>
		<contour>
			<point x="102" y="449.3675193969" type="curve" smooth="yes"/>
			<point x="200" y="518.3675193969"/>
			<point x="289.2040816327" y="554.3675193969"/>
			<point x="378" y="554.3675193969" type="curve" smooth="yes"/>
			<point x="538" y="554.3675193969"/>
			<point x="600" y="466.2498723381"/>
			<point x="600" y="340.3675193969" type="curve" smooth="yes"/>
			<point x="600" y="241.9353690837"/>
			<point x="553" y="144.3675193969"/>
			<point x="289" y="-32.6324806031" type="curve"/>
			<point x="246" y="12.3675193969" type="line"/>
			<point x="272" y="5.3675193969"/>
			<point x="298" y="3.3675193969"/>
			<point x="323" y="3.3675193969" type="curve" smooth="yes"/>
			<point x="376" y="3.3675193969"/>
			<point x="454" y="15.3675193969"/>
			<point x="547" y="15.3675193969" type="curve" smooth="yes"/>
			<point x="649" y="15.3675193969"/>
			<point x="684" y="-27.0853107918"/>
			<point x="684" y="-84.6324806031" type="curve" smooth="yes"/>
			<point x="684" y="-123.8089511913"/>
			<point x="653.4" y="-158.6324806031"/>
			<point x="599" y="-158.6324806031" type="curve" smooth="yes"/>
			<point x="366.2422907489" y="-158.6324806031"/>
			<point x="227.3700440529" y="-178.6324806031"/>
			<point x="155" y="-178.6324806031" type="curve" smooth="yes"/>
			<point x="84" y="-178.6324806031"/>
			<point x="52" y="-129.6324806031"/>
			<point x="52" y="-61.6324806031" type="curve" smooth="yes"/>
			<point x="52" y="-19.6324806031"/>
			<point x="67" y="-1.6324806031"/>
			<point x="85" y="10.3675193969" type="curve" smooth="yes"/>
			<point x="329.0510847817" y="167.1444070875"/>
			<point x="427" y="252.0326137365"/>
			<point x="427" y="340.3675193969" type="curve" smooth="yes"/>
			<point x="427" y="364.5545697566"/>
			<point x="412" y="379.3675193969"/>
			<point x="378" y="379.3675193969" type="curve" smooth="yes"/>
			<point x="264.2192982456" y="379.3675193969"/>
			<point x="194" y="287.3675193969"/>
			<point x="144" y="287.3675193969" type="curve" smooth="yes"/>
			<point x="98" y="287.3675193969"/>
			<point x="61" y="329.3675193969"/>
			<point x="61" y="377.3675193969" type="curve" smooth="yes"/>
			<point x="61" y="409.3675193969"/>
			<point x="71" y="427.3675193969"/>
		</contour>
	</outline>
</glyph>
<glyph name="three" format="2">
	<unicode hex="0033"/>
	<advance width="700"/>
	<outline>
		<contour>
			<point x="372" y="844.3264183373" type="curve" smooth="yes"/>
			<point x="536" y="844.3264183373"/>
			<point x="614" y="773.3264183373"/>
			<point x="614" y="664.3264183373" type="curve" smooth="yes"/>
			<point x="614" y="594.3264183373"/>
			<point x="570.3647598726" y="521.3859709696"/>
			<point x="423" y="497.3264183373" type="curve"/>
			<point x="417" y="536.3264183373" type="line"/>
			<point x="620" y="534.3264183373"/>
			<point x="668" y="458.2199094616"/>
			<point x="668" y="360.3264183373" type="curve" smooth="yes"/>
			<point x="668" y="191.3264183373"/>
			<point x="488" y="120.3264183373"/>
			<point x="257" y="120.3264183373" type="curve"/>
			<point x="92.2" y="120.3264183373"/>
			<point x="51" y="174.3264183373"/>
			<point x="51" y="253.3264183373" type="curve" smooth="yes"/>
			<point x="51" y="297.3264183373"/>
			<point x="68.2833333333" y="333.3264183373"/>
			<point x="112" y="333.3264183373" type="curve" smooth="yes"/>
			<point x="153" y="333.3264183373"/>
			<point x="156.3609022556" y="293.3264183373"/>
			<point x="230" y="293.3264183373" type="curve" smooth="yes"/>
			<point x="389" y="293.3264183373"/>
			<point x="495" y="319.3264183373"/>
			<point x="495" y="371.3264183373" type="curve" smooth="yes"/>
			<point x="495" y="404.3264183373"/>
			<point x="458" y="414.3264183373"/>
			<point x="291" y="414.3264183373" type="curve" smooth="yes"/>
			<point x="238" y="414.3264183373"/>
			<point x="211" y="460.3264183373"/>
			<point x="211" y="509.3264183373" type="curve" smooth="yes"/>
			<point x="211" y="535.3264183373"/>
			<point x="223" y="553.3264183373"/>
			<point x="253" y="559.3264183373" type="curve" smooth="yes"/>
			<point x="373" y="584.3264183373"/>
			<point x="433" y="613.3264183373"/>
			<point x="433" y="654.3264183373" type="curve" smooth="yes"/>
			<point x="433" y="672.3264183373"/>
			<point x="422" y="679.3264183373"/>
			<point x="383" y="679.3264183373" type="curve" smooth="yes"/>
			<point x="220" y="679.3264183373"/>
			<point x="180.4285714286" y="607.3264183373"/>
			<point x="120" y="607.3264183373" type="curve" smooth="yes"/>
			<point x="92" y="607.3264183373"/>
			<point x="42" y="642.3264183373"/>
			<point x="42" y="688.3264183373" type="curve" smooth="yes"/>
			<point x="42" y="752.0683538212"/>
			<point x="191.7765650081" y="844.3264183373"/>
		</contour>
	</outline>
</glyph>
<glyph name="semicolon" format="2">
	<unicode hex="003B"/>
	<advance width="320"/>
	<outline>
		<contour>
			<point x="153" y="275.6940211377" type="curve" smooth="yes"/>
			<point x="236.5811965812" y="275.6940211377"/>
			<point x="280" y="319.0090896309"/>
			<point x="280" y="368.6940211377" type="curve" smooth="yes"/>
			<point x="280" y="419.527354471"/>
			<point x="250.3103448276" y="468.6940211377"/>
			<point x="175" y="468.6940211377" type="curve" smooth="yes"/>
			<point x="100.8723404255" y="468.6940211377"/>
			<point x="41" y="431.152354471"/>
			<point x="41" y="362.6940211377" type="curve" smooth="yes"/>
			<point x="41" y="304.3950520655"/>
			<point x="78.6393442623" y="275.6940211377"/>
		</contour>
		<component base="comma" yOffset="-59.3059788623"/>
	</outline>
</glyph>
<glyph name="question" format="2">
	<unicode hex="003F"/>
	<advance width="541"/>
	<outline>
		<contour>
			<point x="56" y="747.2682096798" type="curve" smooth="yes"/>
			<point x="107" y="774.2682096798"/>
			<point x="189" y="789.2682096798"/>
			<point x="251" y="789.2682096798" type="curve" smooth="yes"/>
			<point x="420" y="789.2682096798"/>
			<point x="510" y="720.2682096798"/>
			<point x="510" y="602.2682096798" type="curve" smooth="yes"/>
			<point x="510" y="523.2682096798"/>
			<point x="459" y="477.2682096798"/>
			<point x="396" y="448.2682096798" type="curve" smooth="yes"/>
			<point x="327" y="414.2682096798"/>
			<point x="314" y="405.2682096798"/>
			<point x="314" y="396.2682096798" type="curve" smooth="yes"/>
			<point x="314" y="388.2682096798"/>
			<point x="331" y="374.2682096798"/>
			<point x="331" y="352.2682096798" type="curve" smooth="yes"/>
			<point x="331" y="328.2682096798"/>
			<point x="310" y="300.2682096798"/>
			<point x="268" y="300.2682096798" type="curve" smooth="yes"/>
			<point x="191" y="300.2682096798"/>
			<point x="144" y="356.2682096798"/>
			<point x="144" y="419.2682096798" type="curve" smooth="yes"/>
			<point x="144" y="463.2682096798"/>
			<point x="170" y="501.2682096798"/>
			<point x="257" y="538.2682096798" type="curve" smooth="yes"/>
			<point x="323" y="566.2682096798"/>
			<point x="330" y="578.2682096798"/>
			<point x="330" y="592.2682096798" type="curve" smooth="yes"/>
			<point x="330" y="609.2682096798"/>
			<point x="312" y="619.2682096798"/>
			<point x="262" y="619.2682096798" type="curve" smooth="yes"/>
			<point x="162" y="619.2682096798"/>
			<point x="136" y="585.2682096798"/>
			<point x="90" y="585.2682096798" type="curve" smooth="yes"/>
			<point x="44" y="585.2682096798"/>
			<point x="7" y="612.2682096798"/>
			<point x="7" y="668.2682096798" type="curve" smooth="yes"/>
			<point x="7" y="705.2682096798"/>
			<point x="23" y="730.2682096798"/>
		</contour>
		<contour>
			<point x="256" y="56.2682096798" type="curve" smooth="yes"/>
			<point x="320" y="56.2682096798"/>
			<point x="353" y="87.2682096798"/>
			<point x="353" y="136.2682096798" type="curve" smooth="yes"/>
			<point x="353" y="186.2682096798"/>
			<point x="315" y="234.2682096798"/>
			<point x="233" y="234.2682096798" type="curve" smooth="yes"/>
			<point x="180" y="234.2682096798"/>
			<point x="144" y="205.2682096798"/>
			<point x="144" y="145.2682096798" type="curve" smooth="yes"/>
			<point x="144" y="88.2682096798"/>
			<point x="186" y="56.2682096798"/>
		</contour>
	</outline>
</glyph>
<glyph name="at" format="2">
	<unicode hex="0040"/>
	<advance width="924"/>
	<outline>
		<contour>
			<point x="534" y="217.6432199203" type="curve" smooth="yes"/>
			<point x="493" y="204.6432199203"/>
			<point x="454" y="166.6432199203"/>
			<point x="454" y="132.6432199203" type="curve" smooth="yes"/>
			<point x="454" y="114.6432199203"/>
			<point x="461" y="98.6432199203"/>
			<point x="475" y="86.6432199203" type="curve"/>
			<point x="353" y="185.6432199203" type="line"/>
			<point x="376" y="171.6432199203"/>
			<point x="393" y="168.6432199203"/>
			<point x="411" y="168.6432199203" type="curve" smooth="yes"/>
			<point x="427" y="168.6432199203"/>
			<point x="435" y="181.6432199203"/>
			<point x="459" y="209.6432199203" type="curve" smooth="yes"/>
			<point x="489" y="246.6432199203"/>
			<point x="523" y="271.6432199203"/>
			<point x="575" y="271.6432199203" type="curve" smooth="yes"/>
			<point x="610" y="271.6432199203"/>
			<point x="640.9634442539" y="258.3758601947"/>
			<point x="663" y="226.6432199203" type="curve" smooth="yes"/>
			<point x="694.182820345" y="180.4926458097"/>
			<point x="704.0540540541" y="180.6432199203"/>
			<point x="712" y="180.6432199203" type="curve"/>
			<point x="717" y="180.6432199203"/>
			<point x="720" y="188.6432199203"/>
			<point x="720" y="194.6432199203" type="curve" smooth="yes"/>
			<point x="720" y="299.6432199203"/>
			<point x="635" y="469.6432199203"/>
			<point x="515" y="469.6432199203" type="curve" smooth="yes"/>
			<point x="354" y="469.6432199203"/>
			<point x="204" y="323.6432199203"/>
			<point x="204" y="174.6432199203" type="curve" smooth="yes"/>
			<point x="204" y="5.6432199203"/>
			<point x="358" y="-78.3567800797"/>
			<point x="515" y="-78.3567800797" type="curve" smooth="yes"/>
			<point x="653" y="-78.3567800797"/>
			<point x="709" y="-40.3567800797"/>
			<point x="749" y="-40.3567800797" type="curve" smooth="yes"/>
			<point x="802" y="-40.3567800797"/>
			<point x="833" y="-79.3567800797"/>
			<point x="833" y="-125.3567800797" type="curve" smooth="yes"/>
			<point x="833" y="-159.3567800797"/>
			<point x="813" y="-191.3567800797"/>
			<point x="775" y="-206.3567800797" type="curve" smooth="yes"/>
			<point x="705" y="-233.3567800797"/>
			<point x="636" y="-247.3567800797"/>
			<point x="515" y="-247.3567800797" type="curve" smooth="yes"/>
			<point x="254" y="-247.3567800797"/>
			<point x="35" y="-86.3567800797"/>
			<point x="35" y="174.6432199203" type="curve" smooth="yes"/>
			<point x="35" y="403.6432199203"/>
			<point x="262" y="639.6432199203"/>
			<point x="515" y="639.6432199203" type="curve" smooth="yes"/>
			<point x="761" y="639.6432199203"/>
			<point x="889" y="351.6432199203"/>
			<point x="889" y="194.6432199203" type="curve" smooth="yes"/>
			<point x="889" y="73.6432199203"/>
			<point x="817" y="11.6432199203"/>
			<point x="733" y="11.6432199203" type="curve" smooth="yes"/>
			<point x="682.7037037037" y="11.6432199203"/>
			<point x="615.3027107596" y="21.6393474066"/>
			<point x="539" y="130.6432199203" type="curve"/>
			<point x="592" y="127.6432199203" type="line"/>
			<point x="559" y="58.6432199203"/>
			<point x="511" y="18.6432199203"/>
			<point x="433" y="18.6432199203" type="curve" smooth="yes"/>
			<point x="352" y="18.6432199203"/>
			<point x="300" y="58.6432199203"/>
			<point x="300" y="154.6432199203" type="curve" smooth="yes"/>
			<point x="300" y="269.6432199203"/>
			<point x="427" y="382.6432199203"/>
			<point x="504" y="382.6432199203" type="curve" smooth="yes"/>
			<point x="560" y="382.6432199203"/>
			<point x="589" y="345.6432199203"/>
			<point x="589" y="298.6432199203" type="curve" smooth="yes"/>
			<point x="589" y="263.6432199203"/>
			<point x="568" y="229.6432199203"/>
		</contour>
	</outline>
</glyph>
<glyph name="C" format="2">
	<unicode hex="0043"/>
	<advance width="682"/>
	<outline>
		<contour>
			<point x="367" y="-126.3778859681" type="curve" smooth="yes"/>
			<point x="545" y="-126.3778859681"/>
			<point x="633" y="-62.3778859681"/>
			<point x="633" y="31.6221140319" type="curve" smooth="yes"/>
			<point x="633" y="71.6221140319"/>
			<point x="616" y="102.6221140319"/>
			<point x="589" y="102.6221140319" type="curve" smooth="yes"/>
			<point x="556" y="102.6221140319"/>
			<point x="494" y="40.6221140319"/>
			<point x="378" y="40.6221140319" type="curve" smooth="yes"/>
			<point x="279" y="40.6221140319"/>
			<point x="216" y="81.6221140319"/>
			<point x="216" y="157.6221140319" type="curve" smooth="yes"/>
			<point x="216" y="277.6221140319"/>
			<point x="319" y="407.6221140319"/>
			<point x="456" y="407.6221140319" type="curve" smooth="yes"/>
			<point x="482" y="407.6221140319"/>
			<point x="487" y="400.6221140319"/>
			<point x="487" y="383.6221140319" type="curve" smooth="yes"/>
			<point x="487" y="363.6221140319"/>
			<point x="499" y="348.6221140319"/>
			<point x="522" y="348.6221140319" type="curve" smooth="yes"/>
			<point x="587" y="348.6221140319"/>
			<point x="630" y="421.6221140319"/>
			<point x="630" y="492.6221140319" type="curve" smooth="yes"/>
			<point x="630" y="554.6221140319"/>
			<point x="592" y="594.6221140319"/>
			<point x="497" y="594.6221140319" type="curve" smooth="yes"/>
			<point x="260" y="594.6221140319"/>
			<point x="41" y="389.6221140319"/>
			<point x="41" y="172.6221140319" type="curve" smooth="yes"/>
			<point x="41" y="-1.3778859681"/>
			<point x="163" y="-126.3778859681"/>
		</contour>
	</outline>
</glyph>
<glyph name="D" format="2">
	<unicode hex="0044"/>
	<advance width="717"/>
	<outline>
		<contour>
			<point x="227" y="-119.4047526926" type="curve" smooth="yes"/>
			<point x="442" y="-119.4047526926"/>
			<point x="678" y="124.5952473074"/>
			<point x="678" y="352.5952473074" type="curve" smooth="yes"/>
			<point x="678" y="493.5952473074"/>
			<point x="570" y="599.5952473074"/>
			<point x="385" y="599.5952473074" type="curve" smooth="yes"/>
			<point x="250" y="599.5952473074"/>
			<point x="52" y="543.5952473074"/>
			<point x="16" y="507.5952473074" type="curve" smooth="yes"/>
			<point x="3" y="494.5952473074"/>
			<point x="1" y="485.5952473074"/>
			<point x="1" y="468.5952473074" type="curve" smooth="yes"/>
			<point x="1" y="410.5952473074"/>
			<point x="65" y="363.5952473074"/>
			<point x="136" y="363.5952473074" type="curve" smooth="yes"/>
			<point x="198" y="363.5952473074"/>
			<point x="254" y="422.5952473074"/>
			<point x="389" y="422.5952473074" type="curve" smooth="yes"/>
			<point x="481" y="422.5952473074"/>
			<point x="502" y="396.5952473074"/>
			<point x="502" y="344.5952473074" type="curve" smooth="yes"/>
			<point x="502" y="178.5952473074"/>
			<point x="366" y="100.5952473074"/>
			<point x="172" y="35.5952473074" type="curve"/>
			<point x="272" y="-0.4047526926" type="line"/>
			<point x="268" y="40.5952473074"/>
			<point x="264" y="73.5952473074"/>
			<point x="264" y="96.5952473074" type="curve" smooth="yes"/>
			<point x="264" y="155.5952473074"/>
			<point x="274" y="310.5952473074"/>
			<point x="274" y="409.5952473074" type="curve" smooth="yes"/>
			<point x="274" y="449.5952473074"/>
			<point x="236" y="481.5952473074"/>
			<point x="188" y="481.5952473074" type="curve" smooth="yes"/>
			<point x="127" y="481.5952473074"/>
			<point x="103" y="464.5952473074"/>
			<point x="100" y="422.5952473074" type="curve" smooth="yes"/>
			<point x="91" y="300.5952473074"/>
			<point x="86" y="192.5952473074"/>
			<point x="86" y="64.5952473074" type="curve" smooth="yes"/>
			<point x="86" y="-26.4047526926"/>
			<point x="145" y="-119.4047526926"/>
		</contour>
	</outline>
</glyph>
<glyph name="F" format="2">
	<unicode hex="0046"/>
	<advance width="604"/>
	<outline>
		<contour>
			<point x="262" y="381.9994488656" type="curve" smooth="yes"/>
			<point x="262" y="539.9994488656"/>
			<point x="274" y="625.9994488656"/>
			<point x="274" y="658.9994488656" type="curve" smooth="yes"/>
			<point x="274" y="689.9994488656"/>
			<point x="256" y="689.9994488656"/>
			<point x="205" y="689.9994488656" type="curve" smooth="yes"/>
			<point x="151" y="689.9994488656"/>
			<point x="118" y="666.9994488656"/>
			<point x="104" y="595.9994488656" type="curve" smooth="yes"/>
			<point x="92" y="536.9994488656"/>
			<point x="88" y="492.9994488656"/>
			<point x="88" y="405.9994488656" type="curve" smooth="yes"/>
			<point x="88" y="286.9994488656"/>
			<point x="108" y="200.9994488656"/>
			<point x="143" y="160.9994488656" type="curve" smooth="yes"/>
			<point x="182" y="113.9994488656"/>
			<point x="240" y="101.9994488656"/>
			<point x="278" y="101.9994488656" type="curve" smooth="yes"/>
			<point x="321" y="101.9994488656"/>
			<point x="334" y="115.9994488656"/>
			<point x="334" y="147.9994488656" type="curve" smooth="yes"/>
			<point x="334" y="182.9994488656"/>
			<point x="262" y="223.9994488656"/>
		</contour>
		<contour>
			<point x="525" y="647.9994488656" type="curve" smooth="yes"/>
			<point x="558" y="647.9994488656"/>
			<point x="569" y="663.9994488656"/>
			<point x="569" y="702.9994488656" type="curve" smooth="yes"/>
			<point x="569" y="772.9994488656"/>
			<point x="502" y="818.9994488656"/>
			<point x="428" y="822.9994488656" type="curve" smooth="yes"/>
			<point x="309" y="828.9994488656"/>
			<point x="163" y="788.9994488656"/>
			<point x="66" y="762.9994488656" type="curve" smooth="yes"/>
			<point x="29" y="753.9994488656"/>
			<point x="16" y="727.9994488656"/>
			<point x="16" y="705.9994488656" type="curve" smooth="yes"/>
			<point x="16" y="659.9994488656"/>
			<point x="60" y="601.9994488656"/>
			<point x="157" y="601.9994488656" type="curve" smooth="yes"/>
			<point x="201" y="601.9994488656"/>
			<point x="312" y="647.9994488656"/>
		</contour>
		<contour>
			<point x="210" y="292.9994488656" type="curve" smooth="yes"/>
			<point x="262" y="306.9994488656"/>
			<point x="375" y="325.9994488656"/>
			<point x="448" y="329.9994488656" type="curve" smooth="yes"/>
			<point x="495" y="332.9994488656"/>
			<point x="563" y="369.9994488656"/>
			<point x="563" y="446.9994488656" type="curve" smooth="yes"/>
			<point x="563" y="484.9994488656"/>
			<point x="549" y="498.9994488656"/>
			<point x="487" y="498.9994488656" type="curve" smooth="yes"/>
			<point x="378" y="493.9994488656"/>
			<point x="272" y="483.9994488656"/>
			<point x="196" y="465.9994488656" type="curve" smooth="yes"/>
			<point x="158" y="455.9994488656"/>
			<point x="117" y="404.9994488656"/>
			<point x="117" y="361.9994488656" type="curve" smooth="yes"/>
			<point x="117" y="315.9994488656"/>
			<point x="147" y="276.9994488656"/>
		</contour>
	</outline>
</glyph>
<glyph name="T" format="2">
	<unicode hex="0054"/>
	<advance width="645"/>
	<outline>
		<contour>
			<point x="227" y="751.4826194103" type="curve" smooth="yes"/>
			<point x="203" y="469.4826194103"/>
			<point x="200" y="378.4826194103"/>
			<point x="229" y="268.4826194103" type="curve" smooth="yes"/>
			<point x="252" y="192.4826194103"/>
			<point x="297" y="170.4826194103"/>
			<point x="350" y="170.4826194103" type="curve" smooth="yes"/>
			<point x="391" y="170.4826194103"/>
			<point x="412" y="187.4826194103"/>
			<point x="412" y="236.4826194103" type="curve" smooth="yes"/>
			<point x="412" y="275.4826194103"/>
			<point x="382" y="350.4826194103"/>
			<point x="404" y="697.4826194103" type="curve" smooth="yes"/>
			<point x="409" y="785.4826194103"/>
			<point x="382" y="823.4826194103"/>
			<point x="299" y="823.4826194103" type="curve" smooth="yes"/>
			<point x="258" y="823.4826194103"/>
			<point x="230" y="793.4826194103"/>
		</contour>
		<contour>
			<point x="133" y="726.4826194103" type="curve" smooth="yes"/>
			<point x="244" y="715.4826194103"/>
			<point x="348" y="715.4826194103"/>
			<point x="484" y="715.4826194103" type="curve" smooth="yes"/>
			<point x="552" y="715.4826194103"/>
			<point x="623" y="749.4826194103"/>
			<point x="623" y="832.4826194103" type="curve" smooth="yes"/>
			<point x="623" y="869.4826194103"/>
			<point x="603" y="894.4826194103"/>
			<point x="561" y="894.4826194103" type="curve" smooth="yes"/>
			<point x="478" y="894.4826194103"/>
			<point x="429" y="883.4826194103"/>
			<point x="365" y="883.4826194103" type="curve" smooth="yes"/>
			<point x="273" y="883.4826194103"/>
			<point x="188" y="893.4826194103"/>
			<point x="75" y="893.4826194103" type="curve" smooth="yes"/>
			<point x="37" y="893.4826194103"/>
			<point x="22" y="866.4826194103"/>
			<point x="22" y="834.4826194103" type="curve" smooth="yes"/>
			<point x="22" y="768.4826194103"/>
			<point x="49" y="734.4826194103"/>
		</contour>
	</outline>
</glyph>
<glyph name="X" format="2">
	<unicode hex="0058"/>
	<advance width="696"/>
	<outline>
		<contour>
			<point x="251" y="718.1213921545" type="curve" smooth="yes"/>
			<point x="344" y="462.1213921545"/>
			<point x="523" y="400.1213921545"/>
			<point x="620" y="275.1213921545" type="curve" smooth="yes"/>
			<point x="705" y="167.1213921545"/>
			<point x="646" y="70.1213921545"/>
			<point x="560" y="70.1213921545" type="curve" smooth="yes"/>
			<point x="519" y="70.1213921545"/>
			<point x="480" y="93.1213921545"/>
			<point x="450" y="143.1213921545" type="curve" smooth="yes"/>
			<point x="380" y="259.1213921545"/>
			<point x="94" y="480.1213921545"/>
			<point x="44" y="635.1213921545" type="curve" smooth="yes"/>
			<point x="6" y="746.1213921545"/>
			<point x="36" y="795.1213921545"/>
			<point x="140" y="795.1213921545" type="curve" smooth="yes"/>
			<point x="198" y="795.1213921545"/>
			<point x="239" y="752.1213921545"/>
		</contour>
		<contour>
			<point x="621" y="620.1213921545" type="curve" smooth="yes"/>
			<point x="494" y="484.1213921545"/>
			<point x="298" y="287.1213921545"/>
			<point x="211" y="134.1213921545" type="curve" smooth="yes"/>
			<point x="188" y="93.1213921545"/>
			<point x="169" y="77.1213921545"/>
			<point x="128" y="77.1213921545" type="curve" smooth="yes"/>
			<point x="65" y="77.1213921545"/>
			<point x="32" y="168.1213921545"/>
			<point x="101" y="277.1213921545" type="curve" smooth="yes"/>
			<point x="245" y="505.1213921545"/>
			<point x="396" y="669.1213921545"/>
			<point x="481" y="745.1213921545" type="curve" smooth="yes"/>
			<point x="515" y="777.1213921545"/>
			<point x="537" y="789.1213921545"/>
			<point x="571" y="789.1213921545" type="curve" smooth="yes"/>
			<point x="635" y="789.1213921545"/>
			<point x="688" y="690.1213921545"/>
		</contour>
	</outline>
</glyph>
<glyph name="s" format="2">
	<unicode hex="0073"/>
	<advance width="537"/>
	<outline>
		<contour>
			<point x="201" y="69.6515127571" type="curve" smooth="yes"/>
			<point x="360" y="69.6515127571"/>
			<point x="512" y="126.6515127571"/>
			<point x="512" y="255.6515127571" type="curve" smooth="yes"/>
			<point x="512" y="401.6515127571"/>
			<point x="231" y="385.6515127571"/>
			<point x="211" y="414.6515127571" type="curve"/>
			<point x="232" y="420.6515127571"/>
			<point x="268" y="427.6515127571"/>
			<point x="334" y="427.6515127571" type="curve" smooth="yes"/>
			<point x="367" y="427.6515127571"/>
			<point x="390" y="421.6515127571"/>
			<point x="414" y="421.6515127571" type="curve" smooth="yes"/>
			<point x="435" y="421.6515127571"/>
			<point x="452" y="449.6515127571"/>
			<point x="452" y="489.6515127571" type="curve" smooth="yes"/>
			<point x="452" y="544.6515127571"/>
			<point x="410" y="603.6515127571"/>
			<point x="343" y="604.6515127571" type="curve" smooth="yes"/>
			<point x="198" y="607.6515127571"/>
			<point x="42" y="559.6515127571"/>
			<point x="42" y="423.6515127571" type="curve" smooth="yes"/>
			<point x="42" y="275.6515127571"/>
			<point x="295" y="294.6515127571"/>
			<point x="340" y="260.6515127571" type="curve"/>
			<point x="321" y="249.6515127571"/>
			<point x="273" y="239.6515127571"/>
			<point x="213" y="239.6515127571" type="curve" smooth="yes"/>
			<point x="150" y="239.6515127571"/>
			<point x="111" y="268.6515127571"/>
			<point x="69" y="268.6515127571" type="curve" smooth="yes"/>
			<point x="38" y="268.6515127571"/>
			<point x="22" y="245.6515127571"/>
			<point x="22" y="219.6515127571" type="curve" smooth="yes"/>
			<point x="22" y="148.6515127571"/>
			<point x="86" y="69.6515127571"/>
		</contour>
	</outline>
</glyph>
<glyph name="v" format="2">
	<unicode hex="0076"/>
	<advance width="641"/>
	<outline>
		<contour>
			<point x="199" y="161.8621837392" type="curve" smooth="yes"/>
			<point x="234" y="107.8621837392"/>
			<point x="268" y="84.8621837392"/>
			<point x="319" y="84.8621837392" type="curve" smooth="yes"/>
			<point x="350" y="84.8621837392"/>
			<point x="365" y="97.8621837392"/>
			<point x="380" y="133.8621837392" type="curve" smooth="yes"/>
			<point x="444" y="283.8621837392"/>
			<point x="519" y="335.8621837392"/>
			<point x="601" y="463.8621837392" type="curve" smooth="yes"/>
			<point x="608" y="474.8621837392"/>
			<point x="613" y="490.8621837392"/>
			<point x="613" y="506.8621837392" type="curve" smooth="yes"/>
			<point x="613" y="561.8621837392"/>
			<point x="565" y="620.8621837392"/>
			<point x="528" y="620.8621837392" type="curve" smooth="yes"/>
			<point x="501" y="620.8621837392"/>
			<point x="487" y="616.8621837392"/>
			<point x="468" y="592.8621837392" type="curve" smooth="yes"/>
			<point x="393" y="497.8621837392"/>
			<point x="324" y="418.8621837392"/>
			<point x="271" y="294.8621837392" type="curve"/>
			<point x="320" y="284.8621837392" type="line"/>
			<point x="293" y="350.8621837392"/>
			<point x="265" y="421.8621837392"/>
			<point x="242" y="486.8621837392" type="curve" smooth="yes"/>
			<point x="216" y="557.8621837392"/>
			<point x="165" y="618.8621837392"/>
			<point x="76" y="618.8621837392" type="curve" smooth="yes"/>
			<point x="41" y="618.8621837392"/>
			<point x="23" y="596.8621837392"/>
			<point x="23" y="568.8621837392" type="curve" smooth="yes"/>
			<point x="23" y="505.8621837392"/>
			<point x="63" y="468.8621837392"/>
			<point x="111" y="346.8621837392" type="curve" smooth="yes"/>
			<point x="133" y="291.8621837392"/>
			<point x="172" y="202.8621837392"/>
		</contour>
	</outline>
</glyph>
<glyph name="endash" format="2">
	<unicode hex="2013"/>
	<advance width="700"/>
	<outline>
		<contour>
			<point x="206" y="240.4084891058" type="curve" smooth="yes"/>
			<point x="262.7638888889" y="240.4084891058"/>
			<point x="355.0172413793" y="250.4084891058"/>
			<point x="608" y="250.4084891058" type="curve" smooth="yes"/>
			<point x="639" y="250.4084891058"/>
			<point x="657" y="271.4084891058"/>
			<point x="657" y="304.4084891058" type="curve" smooth="yes"/>
			<point x="657" y="344.6561955278"/>
			<point x="614" y="411.4084891058"/>
			<point x="495" y="411.4084891058" type="curve" smooth="yes"/>
			<point x="355" y="411.4084891058"/>
			<point x="220.8176325226" y="406.3844267303"/>
			<point x="77" y="387.4084891058" type="curve" smooth="yes"/>
			<point x="46.2890288795" y="383.1724930892"/>
			<point x="41" y="363.9084891058"/>
			<point x="41" y="340.4084891058" type="curve" smooth="yes"/>
			<point x="41" y="291.8647997854"/>
			<point x="99.7116564417" y="240.4084891058"/>
		</contour>
	</outline>
</glyph>
<glyph name="emdash" format="2">
	<unicode hex="2014"/>
	<advance width="1000"/>
	<outline>
		<contour>
			<point x="206" y="301.7923473519" type="curve" smooth="yes"/>
			<point x="305.8208955224" y="301.7923473519"/>
			<point x="466.9353233831" y="311.7923473519"/>
			<point x="910" y="311.7923473519" type="curve" smooth="yes"/>
			<point x="941" y="311.7923473519"/>
			<point x="959" y="332.7923473519"/>
			<point x="959" y="365.7923473519" type="curve" smooth="yes"/>
			<point x="959" y="405.7923473519"/>
			<point x="916" y="472.7923473519"/>
			<point x="797" y="472.7923473519" type="curve" smooth="yes"/>
			<point x="555.8516746411" y="472.7923473519"/>
			<point x="324" y="465.7923473519"/>
			<point x="77" y="448.7923473519" type="curve" smooth="yes"/>
			<point x="46" y="446.7923473519"/>
			<point x="41" y="425.7923473519"/>
			<point x="41" y="401.7923473519" type="curve" smooth="yes"/>
			<point x="41" y="352.7923473519"/>
			<point x="100" y="301.7923473519"/>
		</contour>
	</outline>
</glyph>
<glyph name="quotedblleft" format="2">
	<unicode hex="201C"/>
	<advance width="511"/>
	<outline>
		<contour>
			<point x="176" y="924.5133697132" type="curve" smooth="yes"/>
			<point x="139" y="924.5133697132"/>
			<point x="115" y="912.5133697132"/>
			<point x="89" y="874.5133697132" type="curve" smooth="yes"/>
			<point x="48" y="815.5133697132"/>
			<point x="27" y="732.5133697132"/>
			<point x="27" y="673.5133697132" type="curve" smooth="yes"/>
			<point x="27" y="596.5133697132"/>
			<point x="62" y="526.5133697132"/>
			<point x="113" y="526.5133697132" type="curve" smooth="yes"/>
			<point x="152" y="526.5133697132"/>
			<point x="172" y="555.5133697132"/>
			<point x="182" y="604.5133697132" type="curve" smooth="yes"/>
			<point x="193" y="659.5133697132"/>
			<point x="211" y="709.5133697132"/>
			<point x="253" y="761.5133697132" type="curve" smooth="yes"/>
			<point x="269" y="782.5133697132"/>
			<point x="274" y="801.5133697132"/>
			<point x="274" y="823.5133697132" type="curve" smooth="yes"/>
			<point x="274" y="868.5133697132"/>
			<point x="237" y="924.5133697132"/>
		</contour>
		<contour>
			<point x="419" y="829.5133697132" type="curve" smooth="yes"/>
			<point x="381" y="829.5133697132"/>
			<point x="355" y="817.5133697132"/>
			<point x="329" y="779.5133697132" type="curve" smooth="yes"/>
			<point x="299" y="736.5133697132"/>
			<point x="287" y="672.5133697132"/>
			<point x="287" y="628.5133697132" type="curve" smooth="yes"/>
			<point x="287" y="551.5133697132"/>
			<point x="322" y="481.5133697132"/>
			<point x="373" y="481.5133697132" type="curve" smooth="yes"/>
			<point x="412" y="481.5133697132"/>
			<point x="432" y="510.5133697132"/>
			<point x="442" y="559.5133697132" type="curve" smooth="yes"/>
			<point x="450" y="597.5133697132"/>
			<point x="463" y="629.5133697132"/>
			<point x="493" y="666.5133697132" type="curve" smooth="yes"/>
			<point x="513" y="691.5133697132"/>
			<point x="522" y="710.5133697132"/>
			<point x="522" y="735.5133697132" type="curve" smooth="yes"/>
			<point x="522" y="777.5133697132"/>
			<point x="483" y="829.5133697132"/>
		</contour>
	</outline>
</glyph>
<glyph name="ellipsis" format="2">
	<unicode hex="2026"/>
	<advance width="921"/>
	<outline>
		<contour>
			<point x="183" y="-105.544562249" type="curve" smooth="yes"/>
			<point x="247" y="-105.544562249"/>
			<point x="280" y="-71.544562249"/>
			<point x="280" y="-32.544562249" type="curve" smooth="yes"/>
			<point x="280" y="38.455437751"/>
			<point x="239" y="107.455437751"/>
			<point x="135" y="107.455437751" type="curve" smooth="yes"/>
			<point x="83" y="107.455437751"/>
			<point x="41" y="73.455437751"/>
			<point x="41" y="11.455437751" type="curve" smooth="yes"/>
			<point x="41" y="-67.544562249"/>
			<point x="89" y="-105.544562249"/>
		</contour>
		<contour>
			<point x="483" y="-105.544562249" type="curve" smooth="yes"/>
			<point x="547" y="-105.544562249"/>
			<point x="580" y="-71.544562249"/>
			<point x="580" y="-32.544562249" type="curve" smooth="yes"/>
			<point x="580" y="38.455437751"/>
			<point x="539" y="107.455437751"/>
			<point x="435" y="107.455437751" type="curve" smooth="yes"/>
			<point x="383" y="107.455437751"/>
			<point x="341" y="73.455437751"/>
			<point x="341" y="11.455437751" type="curve" smooth="yes"/>
			<point x="341" y="-67.544562249"/>
			<point x="389" y="-105.544562249"/>
		</contour>
		<contour>
			<point x="783" y="-105.544562249" type="curve" smooth="yes"/>
			<point x="847" y="-105.544562249"/>
			<point x="880" y="-71.544562249"/>
			<point x="880" y="-32.544562249" type="curve" smooth="yes"/>
			<point x="880" y="38.455437751"/>
			<point x="839" y="107.455437751"/>
			<point x="735" y="107.455437751" type="curve" smooth="yes"/>
			<point x="683" y="107.455437751"/>
			<point x="641" y="73.455437751"/>
			<point x="641" y="11.455437751" type="curve" smooth="yes"/>
			<point x="641" y="-67.544562249"/>
			<point x="689" y="-105.544562249"/>
		</contour>
	</outline>
</glyph>
<glyph name="C.alt1" format="2">
	<advance width="682"/>
	<outline>
		<contour>
			<point x="367" y="-203.0599776071" type="curve" smooth="yes"/>
			<point x="545" y="-203.0599776071"/>
			<point x="633" y="-139.0599776071"/>
			<point x="633" y="-45.0599776071" type="curve" smooth="yes"/>
			<point x="633" y="-5.0599776071"/>
			<point x="616" y="25.9400223929"/>
			<point x="589" y="25.9400223929" type="curve" smooth="yes"/>
			<point x="556" y="25.9400223929"/>
			<point x="494" y="-36.0599776071"/>
			<point x="378" y="-36.0599776071" type="curve" smooth="yes"/>
			<point x="279" y="-36.0599776071"/>
			<point x="216" y="4.9400223929"/>
			<point x="216" y="80.9400223929" type="curve" smooth="yes"/>
			<point x="216" y="200.9400223929"/>
			<point x="319" y="330.9400223929"/>
			<point x="456" y="330.9400223929" type="curve" smooth="yes"/>
			<point x="482" y="330.9400223929"/>
			<point x="487" y="323.9400223929"/>
			<point x="487" y="306.9400223929" type="curve" smooth="yes"/>
			<point x="487" y="286.9400223929"/>
			<point x="499" y="271.9400223929"/>
			<point x="522" y="271.9400223929" type="curve" smooth="yes"/>
			<point x="587" y="271.9400223929"/>
			<point x="630" y="344.9400223929"/>
			<point x="630" y="415.9400223929" type="curve" smooth="yes"/>
			<point x="630" y="477.9400223929"/>
			<point x="592" y="517.9400223929"/>
			<point x="497" y="517.9400223929" type="curve" smooth="yes"/>
			<point x="260" y="517.9400223929"/>
			<point x="41" y="312.9400223929"/>
			<point x="41" y="95.9400223929" type="curve" smooth="yes"/>
			<point x="41" y="-78.0599776071"/>
			<point x="163" y="-203.0599776071"/>
		</contour>
	</outline>
</glyph>
<glyph name="D.alt1" format="2">
	<advance width="717"/>
	<outline>
		<contour>
			<point x="227" y="-126.8472557538" type="curve" smooth="yes"/>
			<point x="442" y="-126.8472557538"/>
			<point x="678" y="117.1527442462"/>
			<point x="678" y="345.1527442462" type="curve" smooth="yes"/>
			<point x="678" y="486.1527442462"/>
			<point x="570" y="592.1527442462"/>
			<point x="385" y="592.1527442462" type="curve" smooth="yes"/>
			<point x="250" y="592.1527442462"/>
			<point x="52" y="536.1527442462"/>
			<point x="16" y="500.1527442462" type="curve" smooth="yes"/>
			<point x="3" y="487.1527442462"/>
			<point x="1" y="478.1527442462"/>
			<point x="1" y="461.1527442462" type="curve" smooth="yes"/>
			<point x="1" y="403.1527442462"/>
			<point x="65" y="356.1527442462"/>
			<point x="136" y="356.1527442462" type="curve" smooth="yes"/>
			<point x="198" y="356.1527442462"/>
			<point x="254" y="415.1527442462"/>
			<point x="389" y="415.1527442462" type="curve" smooth="yes"/>
			<point x="481" y="415.1527442462"/>
			<point x="502" y="389.1527442462"/>
			<point x="502" y="337.1527442462" type="curve" smooth="yes"/>
			<point x="502" y="171.1527442462"/>
			<point x="366" y="93.1527442462"/>
			<point x="172" y="28.1527442462" type="curve"/>
			<point x="272" y="-7.8472557538" type="line"/>
			<point x="268" y="33.1527442462"/>
			<point x="264" y="66.1527442462"/>
			<point x="264" y="89.1527442462" type="curve" smooth="yes"/>
			<point x="264" y="148.1527442462"/>
			<point x="274" y="303.1527442462"/>
			<point x="274" y="402.1527442462" type="curve" smooth="yes"/>
			<point x="274" y="442.1527442462"/>
			<point x="236" y="474.1527442462"/>
			<point x="188" y="474.1527442462" type="curve" smooth="yes"/>
			<point x="127" y="474.1527442462"/>
			<point x="103" y="457.1527442462"/>
			<point x="100" y="415.1527442462" type="curve" smooth="yes"/>
			<point x="91" y="293.1527442462"/>
			<point x="86" y="185.1527442462"/>
			<point x="86" y="57.1527442462" type="curve" smooth="yes"/>
			<point x="86" y="-33.8472557538"/>
			<point x="145" y="-126.8472557538"/>
		</contour>
	</outline>
</glyph>
<glyph name="F.alt1" format="2">
	<advance width="604"/>
	<outline>
		<contour>
			<point x="262" y="194.1457102934" type="curve" smooth="yes"/>
			<point x="262" y="352.1457102934"/>
			<point x="274" y="438.1457102934"/>
			<point x="274" y="471.1457102934" type="curve" smooth="yes"/>
			<point x="274" y="502.1457102934"/>
			<point x="256" y="502.1457102934"/>
			<point x="205" y="502.1457102934" type="curve" smooth="yes"/>
			<point x="151" y="502.1457102934"/>
			<point x="118" y="479.1457102934"/>
			<point x="104" y="408.1457102934" type="curve" smooth="yes"/>
			<point x="92" y="349.1457102934"/>
			<point x="88" y="305.1457102934"/>
			<point x="88" y="218.1457102934" type="curve" smooth="yes"/>
			<point x="88" y="99.1457102934"/>
			<point x="108" y="13.1457102934"/>
			<point x="143" y="-26.8542897066" type="curve" smooth="yes"/>
			<point x="182" y="-73.8542897066"/>
			<point x="240" y="-85.8542897066"/>
			<point x="278" y="-85.8542897066" type="curve" smooth="yes"/>
			<point x="321" y="-85.8542897066"/>
			<point x="334" y="-71.8542897066"/>
			<point x="334" y="-39.8542897066" type="curve" smooth="yes"/>
			<point x="334" y="-4.8542897066"/>
			<point x="262" y="36.1457102934"/>
		</contour>
		<contour>
			<point x="525" y="460.1457102934" type="curve" smooth="yes"/>
			<point x="558" y="460.1457102934"/>
			<point x="569" y="476.1457102934"/>
			<point x="569" y="515.1457102934" type="curve" smooth="yes"/>
			<point x="569" y="585.1457102934"/>
			<point x="502" y="631.1457102934"/>
			<point x="428" y="635.1457102934" type="curve" smooth="yes"/>
			<point x="309" y="641.1457102934"/>
			<point x="163" y="601.1457102934"/>
			<point x="66" y="575.1457102934" type="curve" smooth="yes"/>
			<point x="29" y="566.1457102934"/>
			<point x="16" y="540.1457102934"/>
			<point x="16" y="518.1457102934" type="curve" smooth="yes"/>
			<point x="16" y="472.1457102934"/>
			<point x="60" y="414.1457102934"/>
			<point x="157" y="414.1457102934" type="curve" smooth="yes"/>
			<point x="201" y="414.1457102934"/>
			<point x="312" y="460.1457102934"/>
		</contour>
		<contour>
			<point x="210" y="105.1457102934" type="curve" smooth="yes"/>
			<point x="262" y="119.1457102934"/>
			<point x="375" y="138.1457102934"/>
			<point x="448" y="142.1457102934" type="curve" smooth="yes"/>
			<point x="495" y="145.1457102934"/>
			<point x="563" y="182.1457102934"/>
			<point x="563" y="259.1457102934" type="curve" smooth="yes"/>
			<point x="563" y="297.1457102934"/>
			<point x="549" y="311.1457102934"/>
			<point x="487" y="311.1457102934" type="curve" smooth="yes"/>
			<point x="378" y="306.1457102934"/>
			<point x="272" y="296.1457102934"/>
			<point x="196" y="278.1457102934" type="curve" smooth="yes"/>
			<point x="158" y="268.1457102934"/>
			<point x="117" y="217.1457102934"/>
			<point x="117" y="174.1457102934" type="curve" smooth="yes"/>
			<point x="117" y="128.1457102934"/>
			<point x="147" y="89.1457102934"/>
		</contour>
	</outline>
</glyph>
<glyph name="G.alt1" format="2">
	<advance width="839"/>
	<outline>
		<contour>
			<point x="435" y="110.659581552" type="curve" smooth="yes"/>
			<point x="490" y="110.659581552"/>
			<point x="552" y="137.659581552"/>
			<point x="716" y="137.659581552" type="curve" smooth="yes"/>
			<point x="782" y="137.659581552"/>
			<point x="810" y="184.659581552"/>
			<point x="810" y="235.659581552" type="curve" smooth="yes"/>
			<point x="810" y="280.659581552"/>
			<point x="791" y="303.659581552"/>
			<point x="694" y="303.659581552" type="curve" smooth="yes"/>
			<point x="577" y="301.659581552"/>
			<point x="487" y="286.659581552"/>
			<point x="407" y="262.659581552" type="curve" smooth="yes"/>
			<point x="357" y="248.659581552"/>
			<point x="344" y="232.659581552"/>
			<point x="344" y="197.659581552" type="curve" smooth="yes"/>
			<point x="344" y="147.659581552"/>
			<point x="386" y="110.659581552"/>
		</contour>
		<contour>
			<point x="724" y="-244.340418448" type="curve" smooth="yes"/>
			<point x="749" y="-244.340418448"/>
			<point x="788" y="-226.340418448"/>
			<point x="788" y="-186.340418448" type="curve" smooth="yes"/>
			<point x="788" y="-163.340418448"/>
			<point x="784" y="-154.340418448"/>
			<point x="762" y="-107.340418448" type="curve" smooth="yes"/>
			<point x="729" y="-40.340418448"/>
			<point x="719" y="11.659581552"/>
			<point x="719" y="153.659581552" type="curve" smooth="yes"/>
			<point x="719" y="190.659581552"/>
			<point x="689" y="212.659581552"/>
			<point x="635" y="212.659581552" type="curve" smooth="yes"/>
			<point x="590" y="212.659581552"/>
			<point x="576" y="199.659581552"/>
			<point x="551" y="160.659581552" type="curve" smooth="yes"/>
			<point x="487" y="60.659581552"/>
			<point x="390" y="31.659581552"/>
			<point x="314" y="31.659581552" type="curve" smooth="yes"/>
			<point x="261" y="31.659581552"/>
			<point x="234" y="59.659581552"/>
			<point x="234" y="118.659581552" type="curve" smooth="yes"/>
			<point x="234" y="228.659581552"/>
			<point x="345" y="378.659581552"/>
			<point x="463" y="378.659581552" type="curve" smooth="yes"/>
			<point x="482" y="378.659581552"/>
			<point x="488" y="369.659581552"/>
			<point x="488" y="357.659581552" type="curve" smooth="yes"/>
			<point x="488" y="342.659581552"/>
			<point x="495" y="329.659581552"/>
			<point x="523" y="329.659581552" type="curve" smooth="yes"/>
			<point x="595" y="329.659581552"/>
			<point x="643" y="397.9672738597"/>
			<point x="643" y="477.659581552" type="curve" smooth="yes"/>
			<point x="643" y="531.659581552"/>
			<point x="606" y="572.659581552"/>
			<point x="515" y="572.659581552" type="curve" smooth="yes"/>
			<point x="278" y="572.659581552"/>
			<point x="45" y="343.659581552"/>
			<point x="45" y="101.659581552" type="curve" smooth="yes"/>
			<point x="45" y="-47.340418448"/>
			<point x="138" y="-145.340418448"/>
			<point x="297" y="-145.340418448" type="curve" smooth="yes"/>
			<point x="408" y="-145.340418448"/>
			<point x="529" y="-102.340418448"/>
			<point x="581" y="-15.340418448" type="curve"/>
			<point x="555" y="-11.340418448" type="line"/>
			<point x="570" y="-104.340418448"/>
			<point x="583" y="-146.340418448"/>
			<point x="606" y="-186.340418448" type="curve" smooth="yes"/>
			<point x="632" y="-227.340418448"/>
			<point x="669" y="-244.340418448"/>
		</contour>
	</outline>
</glyph>
<glyph name="I.alt1" format="2">
	<advance width="610"/>
	<outline>
		<contour>
			<point x="196" y="-115.6426103257" type="curve" smooth="yes"/>
			<point x="237" y="-115.6426103257"/>
			<point x="330" y="-104.6426103257"/>
			<point x="443" y="-104.6426103257" type="curve" smooth="yes"/>
			<point x="549" y="-104.6426103257"/>
			<point x="594" y="-60.6426103257"/>
			<point x="594" y="-6.6426103257" type="curve" smooth="yes"/>
			<point x="594" y="30.3573896743"/>
			<point x="571" y="59.3573896743"/>
			<point x="468" y="59.3573896743" type="curve" smooth="yes"/>
			<point x="315" y="59.3573896743"/>
			<point x="279" y="78.3573896743"/>
			<point x="88" y="46.3573896743" type="curve" smooth="yes"/>
			<point x="52" y="40.3573896743"/>
			<point x="33" y="13.3573896743"/>
			<point x="33" y="-16.6426103257" type="curve" smooth="yes"/>
			<point x="33" y="-73.6426103257"/>
			<point x="80" y="-115.6426103257"/>
		</contour>
		<contour>
			<point x="135" y="408.3573896743" type="curve" smooth="yes"/>
			<point x="192" y="408.3573896743"/>
			<point x="272" y="426.3573896743"/>
			<point x="442" y="426.3573896743" type="curve" smooth="yes"/>
			<point x="514" y="426.3573896743"/>
			<point x="579" y="468.3573896743"/>
			<point x="579" y="530.3573896743" type="curve" smooth="yes"/>
			<point x="579" y="591.3573896743"/>
			<point x="551" y="605.3573896743"/>
			<point x="459" y="605.3573896743" type="curve" smooth="yes"/>
			<point x="373" y="605.3573896743"/>
			<point x="252" y="596.3573896743"/>
			<point x="117" y="577.3573896743" type="curve" smooth="yes"/>
			<point x="66" y="570.3573896743"/>
			<point x="29" y="542.3573896743"/>
			<point x="29" y="497.3573896743" type="curve" smooth="yes"/>
			<point x="29" y="449.3573896743"/>
			<point x="56" y="408.3573896743"/>
		</contour>
		<contour>
			<point x="320" y="15.3573896743" type="curve" smooth="yes"/>
			<point x="361" y="15.3573896743"/>
			<point x="384" y="38.3573896743"/>
			<point x="384" y="84.3573896743" type="curve" smooth="yes"/>
			<point x="384" y="222.3573896743"/>
			<point x="401" y="332.3573896743"/>
			<point x="401" y="390.3573896743" type="curve" smooth="yes"/>
			<point x="401" y="440.3573896743"/>
			<point x="352" y="480.3573896743"/>
			<point x="293" y="480.3573896743" type="curve" smooth="yes"/>
			<point x="242" y="480.3573896743"/>
			<point x="226" y="453.3573896743"/>
			<point x="226" y="399.3573896743" type="curve" smooth="yes"/>
			<point x="226" y="317.3573896743"/>
			<point x="211" y="205.3573896743"/>
			<point x="211" y="92.3573896743" type="curve" smooth="yes"/>
			<point x="211" y="45.3573896743"/>
			<point x="254" y="15.3573896743"/>
		</contour>
	</outline>
</glyph>
<glyph name="L.alt2" format="2">
	<advance width="526"/>
	<outline>
		<contour>
			<point x="290" y="99.8362699173" type="curve" smooth="yes"/>
			<point x="353" y="99.8362699173"/>
			<point x="428" y="114.8362699173"/>
			<point x="471" y="150.8362699173" type="curve" smooth="yes"/>
			<point x="506" y="180.8362699173"/>
			<point x="519" y="219.8362699173"/>
			<point x="519" y="261.8362699173" type="curve" smooth="yes"/>
			<point x="519" y="296.8362699173"/>
			<point x="497" y="330.8362699173"/>
			<point x="465" y="330.8362699173" type="curve" smooth="yes"/>
			<point x="427" y="330.8362699173"/>
			<point x="396" y="272.8362699173"/>
			<point x="297" y="272.8362699173" type="curve" smooth="yes"/>
			<point x="235" y="272.8362699173"/>
			<point x="212" y="293.8362699173"/>
			<point x="212" y="342.8362699173" type="curve" smooth="yes"/>
			<point x="212" y="401.8362699173"/>
			<point x="264" y="549.8362699173"/>
			<point x="264" y="678.8362699173" type="curve" smooth="yes"/>
			<point x="264" y="738.8362699173"/>
			<point x="230" y="818.8362699173"/>
			<point x="158" y="818.8362699173" type="curve" smooth="yes"/>
			<point x="110" y="818.8362699173"/>
			<point x="91" y="788.8362699173"/>
			<point x="91" y="746.8362699173" type="curve" smooth="yes"/>
			<point x="91" y="641.8362699173"/>
			<point x="40" y="509.8362699173"/>
			<point x="40" y="359.8362699173" type="curve" smooth="yes"/>
			<point x="40" y="191.8362699173"/>
			<point x="127" y="99.8362699173"/>
		</contour>
	</outline>
</glyph>
<glyph name="U.alt2" format="2">
	<advance width="679"/>
	<outline>
		<contour>
			<point x="360" y="183.5720243603" type="curve" smooth="yes"/>
			<point x="552" y="183.5720243603"/>
			<point x="638" y="310.5720243603"/>
			<point x="638" y="494.5720243603" type="curve" smooth="yes"/>
			<point x="638" y="578.5720243603"/>
			<point x="629" y="644.5720243603"/>
			<point x="629" y="716.5720243603" type="curve" smooth="yes"/>
			<point x="629" y="756.5720243603"/>
			<point x="638" y="821.5720243603"/>
			<point x="638" y="834.5720243603" type="curve" smooth="yes"/>
			<point x="638" y="875.5720243603"/>
			<point x="597" y="908.5720243603"/>
			<point x="557" y="908.5720243603" type="curve" smooth="yes"/>
			<point x="495" y="908.5720243603"/>
			<point x="451" y="871.5720243603"/>
			<point x="451" y="811.5720243603" type="curve" smooth="yes"/>
			<point x="451" y="694.5720243603"/>
			<point x="459" y="625.5720243603"/>
			<point x="459" y="501.5720243603" type="curve" smooth="yes"/>
			<point x="459" y="394.5720243603"/>
			<point x="423" y="361.5720243603"/>
			<point x="353" y="361.5720243603" type="curve" smooth="yes"/>
			<point x="274" y="361.5720243603"/>
			<point x="239" y="390.5720243603"/>
			<point x="239" y="528.5720243603" type="curve" smooth="yes"/>
			<point x="239" y="591.5720243603"/>
			<point x="248" y="679.5720243603"/>
			<point x="248" y="740.5720243603" type="curve" smooth="yes"/>
			<point x="248" y="876.5720243603"/>
			<point x="196" y="912.5720243603"/>
			<point x="128" y="912.5720243603" type="curve" smooth="yes"/>
			<point x="95" y="912.5720243603"/>
			<point x="41" y="902.5720243603"/>
			<point x="41" y="866.5720243603" type="curve" smooth="yes"/>
			<point x="41" y="809.5720243603"/>
			<point x="60" y="796.5720243603"/>
			<point x="60" y="685.5720243603" type="curve" smooth="yes"/>
			<point x="60" y="648.5720243603"/>
			<point x="55" y="593.5720243603"/>
			<point x="55" y="538.5720243603" type="curve" smooth="yes"/>
			<point x="55" y="325.5720243603"/>
			<point x="143" y="183.5720243603"/>
		</contour>
	</outline>
</glyph>
<glyph name="Y.alt2" format="2">
	<advance width="636"/>
	<outline>
		<contour>
			<point x="568" y="618.1403468167" type="curve" smooth="yes"/>
			<point x="442" y="522.1403468167"/>
			<point x="332" y="295.1403468167"/>
			<point x="292" y="114.1403468167" type="curve" smooth="yes"/>
			<point x="285" y="84.1403468167"/>
			<point x="263" y="70.1403468167"/>
			<point x="222" y="70.1403468167" type="curve" smooth="yes"/>
			<point x="162" y="70.1403468167"/>
			<point x="132" y="128.1403468167"/>
			<point x="149" y="213.1403468167" type="curve" smooth="yes"/>
			<point x="180" y="376.1403468167"/>
			<point x="312" y="639.1403468167"/>
			<point x="479" y="770.1403468167" type="curve" smooth="yes"/>
			<point x="507" y="792.1403468167"/>
			<point x="522" y="797.1403468167"/>
			<point x="537" y="797.1403468167" type="curve" smooth="yes"/>
			<point x="578" y="797.1403468167"/>
			<point x="607" y="756.1403468167"/>
			<point x="607" y="705.1403468167" type="curve" smooth="yes"/>
			<point x="607" y="671.1403468167"/>
			<point x="599" y="644.1403468167"/>
		</contour>
		<contour>
			<point x="163" y="742.1403468167" type="curve" smooth="yes"/>
			<point x="234" y="616.1403468167"/>
			<point x="270" y="610.1403468167"/>
			<point x="348" y="457.1403468167" type="curve" smooth="yes"/>
			<point x="372" y="409.1403468167"/>
			<point x="347" y="326.1403468167"/>
			<point x="296" y="326.1403468167" type="curve" smooth="yes"/>
			<point x="270" y="326.1403468167"/>
			<point x="250" y="337.1403468167"/>
			<point x="238" y="358.1403468167" type="curve" smooth="yes"/>
			<point x="146" y="511.1403468167"/>
			<point x="109" y="517.1403468167"/>
			<point x="43" y="608.1403468167" type="curve" smooth="yes"/>
			<point x="23" y="636.1403468167"/>
			<point x="11" y="665.1403468167"/>
			<point x="11" y="708.1403468167" type="curve" smooth="yes"/>
			<point x="11" y="759.1403468167"/>
			<point x="40" y="794.1403468167"/>
			<point x="77" y="794.1403468167" type="curve" smooth="yes"/>
			<point x="112" y="794.1403468167"/>
			<point x="138" y="786.1403468167"/>
		</contour>
	</outline>
</glyph>
<glyph name="asterisk.alt1" format="2">
	<advance width="520"/>
	<outline>
		<contour>
			<point x="291" y="576.851043648"/>
			<point x="334" y="518.851043648"/>
			<point x="334" y="380.851043648" type="curve" smooth="yes"/>
			<point x="334" y="309.851043648"/>
			<point x="330" y="195.851043648"/>
			<point x="346" y="108.851043648" type="curve" smooth="yes"/>
			<point x="354" y="64.851043648"/>
			<point x="336" y="36.851043648"/>
			<point x="288" y="36.851043648" type="curve" smooth="yes"/>
			<point x="253" y="36.851043648"/>
			<point x="234" y="56.851043648"/>
			<point x="228" y="84.851043648" type="curve" smooth="yes"/>
			<point x="209" y="177.851043648"/>
			<point x="214" y="303.851043648"/>
			<point x="214" y="380.851043648" type="curve" smooth="yes"/>
			<point x="214" y="487.851043648"/>
			<point x="183" y="490.851043648"/>
			<point x="183" y="531.851043648" type="curve" smooth="yes"/>
			<point x="183" y="559.851043648"/>
			<point x="198" y="576.851043648"/>
			<point x="233" y="576.851043648" type="curve" smooth="yes"/>
		</contour>
		<contour>
			<point x="455" y="406.851043648" type="curve" smooth="yes"/>
			<point x="399" y="329.851043648"/>
			<point x="249" y="250.851043648"/>
			<point x="185" y="151.851043648" type="curve" smooth="yes"/>
			<point x="172" y="131.851043648"/>
			<point x="158" y="124.851043648"/>
			<point x="137" y="124.851043648" type="curve" smooth="yes"/>
			<point x="105" y="124.851043648"/>
			<point x="75" y="153.851043648"/>
			<point x="75" y="185.851043648" type="curve" smooth="yes"/>
			<point x="75" y="196.851043648"/>
			<point x="76" y="209.851043648"/>
			<point x="95" y="234.851043648" type="curve" smooth="yes"/>
			<point x="156" y="315.851043648"/>
			<point x="319" y="414.851043648"/>
			<point x="365" y="481.851043648" type="curve" smooth="yes"/>
			<point x="381" y="505.851043648"/>
			<point x="397" y="518.851043648"/>
			<point x="421" y="518.851043648" type="curve" smooth="yes"/>
			<point x="457" y="518.851043648"/>
			<point x="473" y="492.851043648"/>
			<point x="473" y="461.851043648" type="curve" smooth="yes"/>
			<point x="473" y="438.851043648"/>
			<point x="466" y="422.851043648"/>
		</contour>
		<contour>
			<point x="129" y="449.851043648" type="curve" smooth="yes"/>
			<point x="201" y="410.851043648"/>
			<point x="346" y="362.851043648"/>
			<point x="465" y="298.851043648" type="curve" smooth="yes"/>
			<point x="485" y="288.851043648"/>
			<point x="497" y="269.851043648"/>
			<point x="497" y="244.851043648" type="curve" smooth="yes"/>
			<point x="497" y="212.851043648"/>
			<point x="480" y="183.851043648"/>
			<point x="444" y="183.851043648" type="curve" smooth="yes"/>
			<point x="425" y="183.851043648"/>
			<point x="417" y="187.851043648"/>
			<point x="378" y="208.851043648" type="curve" smooth="yes"/>
			<point x="288" y="256.851043648"/>
			<point x="141" y="306.851043648"/>
			<point x="71" y="346.851043648" type="curve" smooth="yes"/>
			<point x="32" y="369.851043648"/>
			<point x="23" y="401.851043648"/>
			<point x="23" y="422.851043648" type="curve" smooth="yes"/>
			<point x="23" y="454.851043648"/>
			<point x="42" y="470.851043648"/>
			<point x="70" y="470.851043648" type="curve" smooth="yes"/>
			<point x="90" y="470.851043648"/>
			<point x="100" y="464.851043648"/>
		</contour>
	</outline>
</glyph>
<glyph name="colon.alt1" format="2">
	<advance width="320"/>
	<outline>
		<contour>
			<point x="163" y="149.3720025945" type="curve" smooth="yes"/>
			<point x="240" y="149.3720025945"/>
			<point x="280" y="192.6870710877"/>
			<point x="280" y="242.3720025945" type="curve" smooth="yes"/>
			<point x="280" y="303.2291454516"/>
			<point x="241.8275862069" y="362.3720025945"/>
			<point x="145" y="362.3720025945" type="curve" smooth="yes"/>
			<point x="87.4680851064" y="362.3720025945"/>
			<point x="41" y="328.3720025945"/>
			<point x="41" y="266.3720025945" type="curve" smooth="yes"/>
			<point x="41" y="190.3720025945"/>
			<point x="86" y="149.3720025945"/>
		</contour>
		<contour>
			<point x="173" y="-179.6279974055" type="curve" smooth="yes"/>
			<point x="243" y="-179.6279974055"/>
			<point x="280" y="-136.3129289123"/>
			<point x="280" y="-86.6279974055" type="curve" smooth="yes"/>
			<point x="280" y="-25.7708545484"/>
			<point x="240.6965517241" y="33.3720025945"/>
			<point x="141" y="33.3720025945" type="curve" smooth="yes"/>
			<point x="85.6808510638" y="33.3720025945"/>
			<point x="41" y="-0.6279974055"/>
			<point x="41" y="-62.6279974055" type="curve" smooth="yes"/>
			<point x="41" y="-138.6279974055"/>
			<point x="89" y="-179.6279974055"/>
		</contour>
	</outline>
</glyph>
<glyph name="copyright.alt1" format="2">
	<advance width="965"/>
	<outline>
		<contour>
			<point x="358" y="507.2541794675" type="curve" smooth="yes"/>
			<point x="240" y="437.2541794675"/>
			<point x="198" y="350.2541794675"/>
			<point x="198" y="235.2541794675" type="curve" smooth="yes"/>
			<point x="198" y="114.2541794675"/>
			<point x="275" y="12.2541794675"/>
			<point x="449" y="12.2541794675" type="curve" smooth="yes"/>
			<point x="657" y="12.2541794675"/>
			<point x="776" y="130.2541794675"/>
			<point x="776" y="336.2541794675" type="curve" smooth="yes"/>
			<point x="776" y="487.2541794675"/>
			<point x="707" y="582.2541794675"/>
			<point x="534" y="581.2541794675" type="curve" smooth="yes"/>
			<point x="391" y="580.2541794675"/>
			<point x="332" y="528.2541794675"/>
			<point x="265" y="477.2541794675" type="curve" smooth="yes"/>
			<point x="244" y="461.2541794675"/>
			<point x="217" y="450.2541794675"/>
			<point x="192" y="450.2541794675" type="curve" smooth="yes"/>
			<point x="150" y="450.2541794675"/>
			<point x="135" y="470.2541794675"/>
			<point x="135" y="504.2541794675" type="curve" smooth="yes"/>
			<point x="135" y="570.2541794675"/>
			<point x="293" y="708.2541794675"/>
			<point x="533" y="708.2541794675" type="curve" smooth="yes"/>
			<point x="790" y="708.2541794675"/>
			<point x="915" y="562.2541794675"/>
			<point x="915" y="353.2541794675" type="curve" smooth="yes"/>
			<point x="915" y="40.2541794675"/>
			<point x="704" y="-113.7458205325"/>
			<point x="456" y="-113.7458205325" type="curve" smooth="yes"/>
			<point x="219" y="-113.7458205325"/>
			<point x="60" y="-12.7458205325"/>
			<point x="60" y="221.2541794675" type="curve" smooth="yes"/>
			<point x="60" y="480.2541794675"/>
			<point x="276" y="615.2541794675"/>
			<point x="367" y="615.2541794675" type="curve" smooth="yes"/>
			<point x="395" y="615.2541794675"/>
			<point x="408" y="604.2541794675"/>
			<point x="408" y="581.2541794675" type="curve" smooth="yes"/>
			<point x="408" y="556.2541794675"/>
			<point x="394" y="527.2541794675"/>
		</contour>
		<contour>
			<point x="480" y="82.2541794675" type="curve" smooth="yes"/>
			<point x="585" y="82.2541794675"/>
			<point x="640" y="115.2541794675"/>
			<point x="640" y="208.2541794675" type="curve" smooth="yes"/>
			<point x="640" y="242.2541794675"/>
			<point x="627" y="267.2541794675"/>
			<point x="605" y="267.2541794675" type="curve" smooth="yes"/>
			<point x="588" y="267.2541794675"/>
			<point x="548" y="231.2541794675"/>
			<point x="494" y="231.2541794675" type="curve" smooth="yes"/>
			<point x="452" y="231.2541794675"/>
			<point x="427" y="242.2541794675"/>
			<point x="427" y="267.2541794675" type="curve" smooth="yes"/>
			<point x="427" y="300.2541794675"/>
			<point x="469" y="341.2541794675"/>
			<point x="520" y="341.2541794675" type="curve" smooth="yes"/>
			<point x="529" y="341.2541794675"/>
			<point x="535" y="334.2541794675"/>
			<point x="538" y="324.2541794675" type="curve" smooth="yes"/>
			<point x="541" y="314.2541794675"/>
			<point x="548" y="306.2541794675"/>
			<point x="558" y="306.2541794675" type="curve" smooth="yes"/>
			<point x="612" y="306.2541794675"/>
			<point x="651" y="372.2541794675"/>
			<point x="651" y="427.2541794675" type="curve" smooth="yes"/>
			<point x="651" y="475.2541794675"/>
			<point x="622" y="508.2541794675"/>
			<point x="545" y="508.2541794675" type="curve" smooth="yes"/>
			<point x="418" y="508.2541794675"/>
			<point x="288" y="382.2541794675"/>
			<point x="288" y="249.2541794675" type="curve" smooth="yes"/>
			<point x="288" y="150.2541794675"/>
			<point x="368" y="82.2541794675"/>
		</contour>
	</outline>
</glyph>
<glyph name="d.alt2" format="2">
	<advance width="708"/>
	<outline>
		<contour>
			<point x="293" y="141.6271636403" type="curve" smooth="yes"/>
			<point x="369" y="141.6271636403"/>
			<point x="481" y="192.6271636403"/>
			<point x="529" y="342.6271636403" type="curve"/>
			<point x="432" y="313.6271636403" type="line"/>
			<point x="432" y="217.6271636403"/>
			<point x="493" y="130.6271636403"/>
			<point x="577" y="130.6271636403" type="curve" smooth="yes"/>
			<point x="634" y="130.6271636403"/>
			<point x="672" y="178.6271636403"/>
			<point x="672" y="221.6271636403" type="curve" smooth="yes"/>
			<point x="672" y="260.6271636403"/>
			<point x="597" y="243.6271636403"/>
			<point x="597" y="444.6271636403" type="curve" smooth="yes"/>
			<point x="597" y="569.6271636403"/>
			<point x="628" y="646.6271636403"/>
			<point x="638" y="793.6271636403" type="curve" smooth="yes"/>
			<point x="644" y="902.6271636403"/>
			<point x="599" y="960.6271636403"/>
			<point x="512" y="960.6271636403" type="curve" smooth="yes"/>
			<point x="481" y="960.6271636403"/>
			<point x="458" y="944.6271636403"/>
			<point x="458" y="891.6271636403" type="curve" smooth="yes"/>
			<point x="458" y="521.6271636403"/>
			<point x="385" y="316.6271636403"/>
			<point x="288" y="316.6271636403" type="curve" smooth="yes"/>
			<point x="257" y="316.6271636403"/>
			<point x="214" y="379.6271636403"/>
			<point x="214" y="429.6271636403" type="curve" smooth="yes"/>
			<point x="214" y="476.6271636403"/>
			<point x="259" y="502.6271636403"/>
			<point x="327" y="502.6271636403" type="curve" smooth="yes"/>
			<point x="388" y="502.6271636403"/>
			<point x="399" y="483.6271636403"/>
			<point x="426" y="483.6271636403" type="curve" smooth="yes"/>
			<point x="446" y="483.6271636403"/>
			<point x="462" y="506.6271636403"/>
			<point x="462" y="539.6271636403" type="curve" smooth="yes"/>
			<point x="462" y="630.6271636403"/>
			<point x="393" y="677.6271636403"/>
			<point x="282" y="677.6271636403" type="curve" smooth="yes"/>
			<point x="131" y="679.6271636403"/>
			<point x="30" y="579.6271636403"/>
			<point x="30" y="429.6271636403" type="curve" smooth="yes"/>
			<point x="30" y="274.6271636403"/>
			<point x="138" y="141.6271636403"/>
		</contour>
	</outline>
</glyph>
<glyph name="dagger.alt1" format="2">
	<advance width="619"/>
	<outline>
		<contour>
			<point x="402" y="488.1746276597" type="curve" smooth="yes"/>
			<point x="402" y="385.1746276597"/>
			<point x="377" y="267.1746276597"/>
			<point x="377" y="125.1746276597" type="curve" smooth="yes"/>
			<point x="377" y="-111.8253723403"/>
			<point x="403" y="-177.8253723403"/>
			<point x="403" y="-269.8253723403" type="curve" smooth="yes"/>
			<point x="403" y="-327.8253723403"/>
			<point x="374" y="-355.8253723403"/>
			<point x="328" y="-355.8253723403" type="curve" smooth="yes"/>
			<point x="284" y="-355.8253723403"/>
			<point x="254" y="-326.8253723403"/>
			<point x="242" y="-263.8253723403" type="curve" smooth="yes"/>
			<point x="216" y="-127.8253723403"/>
			<point x="210" y="-39.8253723403"/>
			<point x="210" y="102.1746276597" type="curve" smooth="yes"/>
			<point x="210" y="292.1746276597"/>
			<point x="240" y="393.1746276597"/>
			<point x="235" y="551.1746276597" type="curve" smooth="yes"/>
			<point x="233" y="596.1746276597"/>
			<point x="248" y="626.1746276597"/>
			<point x="297" y="626.1746276597" type="curve" smooth="yes"/>
			<point x="362" y="626.1746276597"/>
			<point x="402" y="586.1746276597"/>
		</contour>
		<contour>
			<point x="240" y="282.1746276597"/>
			<point x="166" y="224.1746276597"/>
			<point x="92" y="224.1746276597" type="curve" smooth="yes"/>
			<point x="42" y="224.1746276597"/>
			<point x="15" y="262.7211392876"/>
			<point x="15" y="309.1746276597" type="curve" smooth="yes"/>
			<point x="15" y="349.6343977746"/>
			<point x="27.9598329386" y="381.1654466171"/>
			<point x="98" y="397.1746276597" type="curve" smooth="yes"/>
			<point x="218" y="424.1746276597"/>
			<point x="361" y="433.1746276597"/>
			<point x="479" y="433.1746276597" type="curve" smooth="yes"/>
			<point x="558" y="433.1746276597"/>
			<point x="604" y="397.1746276597"/>
			<point x="604" y="340.1746276597" type="curve" smooth="yes"/>
			<point x="604" y="306.1746276597"/>
			<point x="589" y="282.1746276597"/>
			<point x="535" y="282.1746276597" type="curve" smooth="yes"/>
		</contour>
	</outline>
</glyph>
<glyph name="e.alt1" format="2">
	<advance width="617"/>
	<outline>
		<contour>
			<point x="267" y="119.8798189748" type="curve" smooth="yes"/>
			<point x="407" y="119.8798189748"/>
			<point x="526" y="167.8798189748"/>
			<point x="526" y="282.8798189748" type="curve" smooth="yes"/>
			<point x="526" y="397.8798189748"/>
			<point x="443" y="458.8798189748"/>
			<point x="323" y="458.8798189748" type="curve" smooth="yes"/>
			<point x="141" y="458.8798189748"/>
			<point x="25" y="290.8798189748"/>
			<point x="25" y="143.8798189748" type="curve" smooth="yes"/>
			<point x="25" y="15.8798189748"/>
			<point x="105" y="-76.1201810252"/>
			<point x="289" y="-76.1201810252" type="curve" smooth="yes"/>
			<point x="463" y="-76.1201810252"/>
			<point x="573" y="2.8798189748"/>
			<point x="573" y="78.8798189748" type="curve" smooth="yes"/>
			<point x="573" y="114.8798189748"/>
			<point x="559" y="132.8798189748"/>
			<point x="530" y="132.8798189748" type="curve" smooth="yes"/>
			<point x="475" y="132.8798189748"/>
			<point x="432" y="79.8798189748"/>
			<point x="272" y="79.8798189748" type="curve" smooth="yes"/>
			<point x="213" y="79.8798189748"/>
			<point x="194" y="91.8798189748"/>
			<point x="194" y="120.8798189748" type="curve" smooth="yes"/>
			<point x="194" y="204.8798189748"/>
			<point x="258" y="288.8798189748"/>
			<point x="347" y="288.8798189748" type="curve" smooth="yes"/>
			<point x="361" y="288.8798189748"/>
			<point x="367" y="282.8798189748"/>
			<point x="367" y="271.8798189748" type="curve" smooth="yes"/>
			<point x="367" y="240.8798189748"/>
			<point x="296" y="214.8798189748"/>
			<point x="248" y="214.8798189748" type="curve" smooth="yes"/>
			<point x="216" y="214.8798189748"/>
			<point x="198" y="219.8798189748"/>
			<point x="184" y="219.8798189748" type="curve" smooth="yes"/>
			<point x="163" y="219.8798189748"/>
			<point x="154" y="209.8798189748"/>
			<point x="154" y="189.8798189748" type="curve" smooth="yes"/>
			<point x="154" y="152.8798189748"/>
			<point x="197" y="119.8798189748"/>
		</contour>
	</outline>
</glyph>
<glyph name="e.alt2" format="2">
	<advance width="617"/>
	<outline>
		<contour>
			<point x="267" y="304.8103042975" type="curve" smooth="yes"/>
			<point x="407" y="304.8103042975"/>
			<point x="526" y="352.8103042975"/>
			<point x="526" y="467.8103042975" type="curve" smooth="yes"/>
			<point x="526" y="582.8103042975"/>
			<point x="443" y="643.8103042975"/>
			<point x="323" y="643.8103042975" type="curve" smooth="yes"/>
			<point x="141" y="643.8103042975"/>
			<point x="25" y="475.8103042975"/>
			<point x="25" y="328.8103042975" type="curve" smooth="yes"/>
			<point x="25" y="200.8103042975"/>
			<point x="105" y="108.8103042975"/>
			<point x="289" y="108.8103042975" type="curve" smooth="yes"/>
			<point x="463" y="108.8103042975"/>
			<point x="573" y="187.8103042975"/>
			<point x="573" y="263.8103042975" type="curve" smooth="yes"/>
			<point x="573" y="299.8103042975"/>
			<point x="559" y="317.8103042975"/>
			<point x="530" y="317.8103042975" type="curve" smooth="yes"/>
			<point x="475" y="317.8103042975"/>
			<point x="432" y="264.8103042975"/>
			<point x="272" y="264.8103042975" type="curve" smooth="yes"/>
			<point x="213" y="264.8103042975"/>
			<point x="194" y="276.8103042975"/>
			<point x="194" y="305.8103042975" type="curve" smooth="yes"/>
			<point x="194" y="389.8103042975"/>
			<point x="258" y="473.8103042975"/>
			<point x="347" y="473.8103042975" type="curve" smooth="yes"/>
			<point x="361" y="473.8103042975"/>
			<point x="367" y="467.8103042975"/>
			<point x="367" y="456.8103042975" type="curve" smooth="yes"/>
			<point x="367" y="425.8103042975"/>
			<point x="296" y="399.8103042975"/>
			<point x="248" y="399.8103042975" type="curve" smooth="yes"/>
			<point x="216" y="399.8103042975"/>
			<point x="198" y="404.8103042975"/>
			<point x="184" y="404.8103042975" type="curve" smooth="yes"/>
			<point x="163" y="404.8103042975"/>
			<point x="154" y="394.8103042975"/>
			<point x="154" y="374.8103042975" type="curve" smooth="yes"/>
			<point x="154" y="337.8103042975"/>
			<point x="197" y="304.8103042975"/>
		</contour>
	</outline>
</glyph>
<glyph name="eight.alt2" format="2">
	<advance width="700"/>
	<outline>
		<contour>
			<point x="396" y="673.1285451027" type="curve" smooth="yes"/>
			<point x="238.7312883765" y="678.4060186471"/>
			<point x="206" y="664.1285451027"/>
			<point x="206" y="651.1285451027" type="curve" smooth="yes"/>
			<point x="206" y="617.6626360118"/>
			<point x="298" y="594.1285451027"/>
			<point x="412" y="556.1285451027" type="curve" smooth="yes"/>
			<point x="625.7009717466" y="484.5490934012"/>
			<point x="663" y="444.1285451027"/>
			<point x="663" y="351.1285451027" type="curve" smooth="yes"/>
			<point x="663" y="228.1285451027"/>
			<point x="568.2941176471" y="117.1285451027"/>
			<point x="318" y="117.1285451027" type="curve" smooth="yes"/>
			<point x="116.3076923077" y="117.1285451027"/>
			<point x="39.99993101" y="204.1251990877"/>
			<point x="42" y="301.1285451027" type="curve" smooth="yes"/>
			<point x="44.0001121211" y="379.1329178244"/>
			<point x="81.289040218" y="433.9806513775"/>
			<point x="306" y="551.1285451027" type="curve" smooth="yes"/>
			<point x="458.1391672542" y="630.0578875128"/>
			<point x="491.8685127595" y="668.6145495263"/>
			<point x="503" y="712.1285451027" type="curve" smooth="yes"/>
			<point x="513" y="748.1285451027"/>
			<point x="528" y="771.1285451027"/>
			<point x="563" y="771.1285451027" type="curve" smooth="yes"/>
			<point x="615" y="771.1285451027"/>
			<point x="659" y="724.1285451027"/>
			<point x="659" y="664.1285451027" type="curve" smooth="yes"/>
			<point x="659" y="609.1285451027"/>
			<point x="616.013180004" y="542.4864715228"/>
			<point x="463" y="459.1285451027" type="curve" smooth="yes"/>
			<point x="235" y="334.1285451027"/>
			<point x="219" y="317.149935477"/>
			<point x="219" y="282.1285451027" type="curve" smooth="yes"/>
			<point x="219" y="260.8932509851"/>
			<point x="218.1581885492" y="231.0060428938"/>
			<point x="239" y="187.1285451027" type="curve"/>
			<point x="144" y="313.1285451027" type="line"/>
			<point x="208.6474761064" y="287.4924769915"/>
			<point x="255.1384615385" y="288.1285451027"/>
			<point x="316" y="288.1285451027" type="curve" smooth="yes"/>
			<point x="405.935483871" y="288.1285451027"/>
			<point x="480" y="303.0317709092"/>
			<point x="480" y="354.1285451027" type="curve" smooth="yes"/>
			<point x="480" y="376.1285451027"/>
			<point x="465" y="400.1285451027"/>
			<point x="325" y="436.1285451027" type="curve" smooth="yes"/>
			<point x="80" y="500.1285451027"/>
			<point x="32" y="557.1285451027"/>
			<point x="33" y="651.1285451027" type="curve" smooth="yes"/>
			<point x="34.999984884" y="771.1276381443"/>
			<point x="125.0479452055" y="840.1285451027"/>
			<point x="335" y="840.1285451027" type="curve" smooth="yes"/>
			<point x="419" y="840.1285451027"/>
			<point x="465" y="785.1285451027"/>
			<point x="463" y="734.1285451027" type="curve" smooth="yes"/>
			<point x="462" y="700.1285451027"/>
			<point x="432" y="672.1285451027"/>
		</contour>
	</outline>
</glyph>
<glyph name="endash.alt2" format="2">
	<advance width="700"/>
	<outline>
		<contour>
			<point x="206" y="335.0004551001" type="curve" smooth="yes"/>
			<point x="262.7638888889" y="335.0004551001"/>
			<point x="355.0172413793" y="345.0004551001"/>
			<point x="608" y="345.0004551001" type="curve" smooth="yes"/>
			<point x="639" y="345.0004551001"/>
			<point x="657" y="366.0004551001"/>
			<point x="657" y="399.0004551001" type="curve" smooth="yes"/>
			<point x="657" y="439.2481615221"/>
			<point x="614" y="506.0004551001"/>
			<point x="495" y="506.0004551001" type="curve" smooth="yes"/>
			<point x="355" y="506.0004551001"/>
			<point x="220.8176325226" y="500.9763927246"/>
			<point x="77" y="482.0004551001" type="curve" smooth="yes"/>
			<point x="46.2890288795" y="477.7644590835"/>
			<point x="41" y="458.5004551001"/>
			<point x="41" y="435.0004551001" type="curve" smooth="yes"/>
			<point x="41" y="386.4567657797"/>
			<point x="99.7116564417" y="335.0004551001"/>
		</contour>
	</outline>
</glyph>
<glyph name="five.alt2" format="2">
	<advance width="700"/>
	<outline>
		<contour>
			<point x="601" y="694.6551824972" type="curve" smooth="yes"/>
			<point x="438" y="694.6551824972"/>
			<point x="362" y="675.6551824972"/>
			<point x="170" y="678.6551824972" type="curve"/>
			<point x="239" y="729.6551824972" type="line"/>
			<point x="225" y="700.6551824972"/>
			<point x="222" y="688.6551824972"/>
			<point x="222" y="668.6551824972" type="curve" smooth="yes"/>
			<point x="222" y="646.6551824972"/>
			<point x="231" y="640.6551824972"/>
			<point x="381" y="617.6551824972" type="curve" smooth="yes"/>
			<point x="595" y="580.6551824972"/>
			<point x="641" y="523.6551824972"/>
			<point x="641" y="408.6551824972" type="curve" smooth="yes"/>
			<point x="641" y="250.6551824972"/>
			<point x="483" y="139.6551824972"/>
			<point x="242" y="139.6551824972" type="curve" smooth="yes"/>
			<point x="123" y="139.6551824972"/>
			<point x="69" y="191.6551824972"/>
			<point x="69" y="269.6551824972" type="curve" smooth="yes"/>
			<point x="69" y="312.6551824972"/>
			<point x="91" y="346.6551824972"/>
			<point x="136" y="346.6551824972" type="curve" smooth="yes"/>
			<point x="171" y="346.6551824972"/>
			<point x="175" y="309.6551824972"/>
			<point x="233" y="309.6551824972" type="curve" smooth="yes"/>
			<point x="329" y="309.6551824972"/>
			<point x="457" y="344.6551824972"/>
			<point x="457" y="406.6551824972" type="curve" smooth="yes"/>
			<point x="457" y="432.6551824972"/>
			<point x="446" y="449.6551824972"/>
			<point x="365" y="463.6551824972" type="curve" smooth="yes"/>
			<point x="90" y="512.6551824972"/>
			<point x="45" y="543.6551824972"/>
			<point x="45" y="658.6551824972" type="curve" smooth="yes"/>
			<point x="45" y="695.6551824972"/>
			<point x="54" y="742.6551824972"/>
			<point x="73" y="798.6551824972" type="curve" smooth="yes"/>
			<point x="84" y="834.6551824972"/>
			<point x="98" y="851.6551824972"/>
			<point x="134" y="851.6551824972" type="curve" smooth="yes"/>
			<point x="324" y="851.6551824972"/>
			<point x="392" y="867.6551824972"/>
			<point x="534" y="867.6551824972" type="curve" smooth="yes"/>
			<point x="620" y="867.6551824972"/>
			<point x="666" y="813.6551824972"/>
			<point x="663" y="754.6551824972" type="curve" smooth="yes"/>
			<point x="662" y="718.6551824972"/>
			<point x="637" y="694.6551824972"/>
		</contour>
	</outline>
</glyph>
<glyph name="hyphen.alt2" format="2">
	<advance width="531"/>
	<outline>
		<contour>
			<point x="206" y="292.2690233984" type="curve" smooth="yes"/>
			<point x="238.7592592593" y="292.2690233984"/>
			<point x="291.9259259259" y="302.2690233984"/>
			<point x="438" y="302.2690233984" type="curve" smooth="yes"/>
			<point x="469" y="302.2690233984"/>
			<point x="487" y="323.2690233984"/>
			<point x="487" y="356.2690233984" type="curve" smooth="yes"/>
			<point x="487" y="397.2690233984"/>
			<point x="444" y="465.2690233984"/>
			<point x="325" y="465.2690233984" type="curve" smooth="yes"/>
			<point x="241.9642857143" y="465.2690233984"/>
			<point x="160.9762270093" y="465.1078624782"/>
			<point x="77" y="439.2690233984" type="curve" smooth="yes"/>
			<point x="49" y="431.2690233984"/>
			<point x="43" y="417.2690233984"/>
			<point x="43" y="395.2690233984" type="curve" smooth="yes"/>
			<point x="43" y="345.2690233984"/>
			<point x="101" y="292.2690233984"/>
		</contour>
	</outline>
</glyph>
<glyph name="n.alt1" format="2">
	<advance width="707"/>
	<outline>
		<contour>
			<point x="585" y="-161.5885305556" type="curve" smooth="yes"/>
			<point x="624" y="-161.5885305556"/>
			<point x="667" y="-122.5885305556"/>
			<point x="667" y="-68.5885305556" type="curve" smooth="yes"/>
			<point x="667" y="-43.5885305556"/>
			<point x="660" y="-26.5885305556"/>
			<point x="642" y="-11.5885305556" type="curve" smooth="yes"/>
			<point x="601" y="22.4114694444"/>
			<point x="594" y="87.4114694444"/>
			<point x="594" y="218.4114694444" type="curve" smooth="yes"/>
			<point x="594" y="304.4114694444"/>
			<point x="533" y="372.4114694444"/>
			<point x="439" y="372.4114694444" type="curve" smooth="yes"/>
			<point x="341" y="372.4114694444"/>
			<point x="234" y="289.4114694444"/>
			<point x="167" y="100.4114694444" type="curve"/>
			<point x="217" y="34.4114694444" type="line"/>
			<point x="217" y="173.4114694444"/>
			<point x="244" y="189.4114694444"/>
			<point x="244" y="260.4114694444" type="curve" smooth="yes"/>
			<point x="244" y="325.4114694444"/>
			<point x="182" y="359.4114694444"/>
			<point x="141" y="359.4114694444" type="curve" smooth="yes"/>
			<point x="104" y="359.4114694444"/>
			<point x="84" y="338.4114694444"/>
			<point x="84" y="309.4114694444" type="curve" smooth="yes"/>
			<point x="84" y="186.4114694444"/>
			<point x="55" y="134.4114694444"/>
			<point x="55" y="-0.5885305556" type="curve" smooth="yes"/>
			<point x="55" y="-93.5885305556"/>
			<point x="85" y="-160.5885305556"/>
			<point x="145" y="-160.5885305556" type="curve" smooth="yes"/>
			<point x="191" y="-160.5885305556"/>
			<point x="216" y="-145.5885305556"/>
			<point x="229" y="-101.5885305556" type="curve" smooth="yes"/>
			<point x="282" y="75.4114694444"/>
			<point x="374" y="205.4114694444"/>
			<point x="425" y="205.4114694444" type="curve" smooth="yes"/>
			<point x="443" y="205.4114694444"/>
			<point x="456" y="194.4114694444"/>
			<point x="483" y="165.4114694444" type="curve"/>
			<point x="488" y="222.4114694444"/>
			<point x="457" y="224.4114694444"/>
			<point x="404" y="227.4114694444" type="curve"/>
			<point x="437" y="212.4114694444"/>
			<point x="438" y="189.4114694444"/>
			<point x="438" y="147.4114694444" type="curve" smooth="yes"/>
			<point x="438" y="-56.5885305556"/>
			<point x="493" y="-161.5885305556"/>
		</contour>
	</outline>
</glyph>
<glyph name="p.alt2" format="2">
	<advance width="610"/>
	<outline>
		<contour>
			<point x="211" y="538.3697474241" type="curve" smooth="yes"/>
			<point x="211" y="387.3697474241"/>
			<point x="257" y="272.3697474241"/>
			<point x="257" y="134.3697474241" type="curve" smooth="yes"/>
			<point x="257" y="36.3697474241"/>
			<point x="250" y="-80.6302525759"/>
			<point x="157" y="-80.6302525759" type="curve" smooth="yes"/>
			<point x="114" y="-80.6302525759"/>
			<point x="63" y="-45.6302525759"/>
			<point x="63" y="29.3697474241" type="curve" smooth="yes"/>
			<point x="63" y="92.3697474241"/>
			<point x="75" y="116.3697474241"/>
			<point x="75" y="182.3697474241" type="curve" smooth="yes"/>
			<point x="75" y="333.3697474241"/>
			<point x="36" y="446.3697474241"/>
			<point x="25" y="586.3697474241" type="curve" smooth="yes"/>
			<point x="23" y="615.3697474241"/>
			<point x="46" y="636.3697474241"/>
			<point x="80" y="636.3697474241" type="curve" smooth="yes"/>
			<point x="145" y="636.3697474241"/>
			<point x="211" y="591.3697474241"/>
		</contour>
		<contour>
			<point x="233" y="708.3697474241" type="curve" smooth="yes"/>
			<point x="422" y="708.3697474241"/>
			<point x="584" y="591.3697474241"/>
			<point x="584" y="380.3697474241" type="curve" smooth="yes"/>
			<point x="584" y="283.3697474241"/>
			<point x="494" y="170.3697474241"/>
			<point x="342" y="170.3697474241" type="curve" smooth="yes"/>
			<point x="219" y="170.3697474241"/>
			<point x="126" y="249.3697474241"/>
			<point x="126" y="341.3697474241" type="curve" smooth="yes"/>
			<point x="126" y="366.3697474241"/>
			<point x="150" y="392.3697474241"/>
			<point x="174" y="392.3697474241" type="curve" smooth="yes"/>
			<point x="219" y="392.3697474241"/>
			<point x="250" y="339.3697474241"/>
			<point x="313" y="339.3697474241" type="curve" smooth="yes"/>
			<point x="366" y="339.3697474241"/>
			<point x="402" y="358.3697474241"/>
			<point x="402" y="407.3697474241" type="curve" smooth="yes"/>
			<point x="402" y="490.3697474241"/>
			<point x="298" y="533.3697474241"/>
			<point x="226" y="533.3697474241" type="curve" smooth="yes"/>
			<point x="213" y="533.3697474241"/>
			<point x="205" y="528.3697474241"/>
			<point x="178" y="528.3697474241" type="curve" smooth="yes"/>
			<point x="133" y="528.3697474241"/>
			<point x="84" y="568.3697474241"/>
			<point x="84" y="617.3697474241" type="curve" smooth="yes"/>
			<point x="84" y="689.3697474241"/>
			<point x="135" y="708.3697474241"/>
		</contour>
	</outline>
</glyph>
<glyph name="quotedblleft.alt2" format="2">
	<advance width="511"/>
	<outline>
		<contour>
			<point x="176" y="990.0138105487" type="curve" smooth="yes"/>
			<point x="139" y="990.0138105487"/>
			<point x="115" y="978.0138105487"/>
			<point x="89" y="940.0138105487" type="curve" smooth="yes"/>
			<point x="48" y="881.0138105487"/>
			<point x="27" y="798.0138105487"/>
			<point x="27" y="739.0138105487" type="curve" smooth="yes"/>
			<point x="27" y="662.0138105487"/>
			<point x="62" y="592.0138105487"/>
			<point x="113" y="592.0138105487" type="curve" smooth="yes"/>
			<point x="152" y="592.0138105487"/>
			<point x="172" y="621.0138105487"/>
			<point x="182" y="670.0138105487" type="curve" smooth="yes"/>
			<point x="193" y="725.0138105487"/>
			<point x="211" y="775.0138105487"/>
			<point x="253" y="827.0138105487" type="curve" smooth="yes"/>
			<point x="269" y="848.0138105487"/>
			<point x="274" y="867.0138105487"/>
			<point x="274" y="889.0138105487" type="curve" smooth="yes"/>
			<point x="274" y="934.0138105487"/>
			<point x="237" y="990.0138105487"/>
		</contour>
		<contour>
			<point x="419" y="895.0138105487" type="curve" smooth="yes"/>
			<point x="381" y="895.0138105487"/>
			<point x="355" y="883.0138105487"/>
			<point x="329" y="845.0138105487" type="curve" smooth="yes"/>
			<point x="299" y="802.0138105487"/>
			<point x="287" y="738.0138105487"/>
			<point x="287" y="694.0138105487" type="curve" smooth="yes"/>
			<point x="287" y="617.0138105487"/>
			<point x="322" y="547.0138105487"/>
			<point x="373" y="547.0138105487" type="curve" smooth="yes"/>
			<point x="412" y="547.0138105487"/>
			<point x="432" y="576.0138105487"/>
			<point x="442" y="625.0138105487" type="curve" smooth="yes"/>
			<point x="450" y="663.0138105487"/>
			<point x="463" y="695.0138105487"/>
			<point x="493" y="732.0138105487" type="curve" smooth="yes"/>
			<point x="513" y="757.0138105487"/>
			<point x="522" y="776.0138105487"/>
			<point x="522" y="801.0138105487" type="curve" smooth="yes"/>
			<point x="522" y="843.0138105487"/>
			<point x="483" y="895.0138105487"/>
		</contour>
	</outline>
</glyph>
<glyph name="quoteleft.alt2" format="2">
	<advance width="241"/>
	<outline>
		<contour>
			<point x="169" y="938.7248013114" type="curve" smooth="yes"/>
			<point x="131" y="938.7248013114"/>
			<point x="105" y="926.7248013114"/>
			<point x="79" y="888.7248013114" type="curve" smooth="yes"/>
			<point x="38" y="829.7248013114"/>
			<point x="17" y="746.7248013114"/>
			<point x="17" y="687.7248013114" type="curve" smooth="yes"/>
			<point x="17" y="610.7248013114"/>
			<point x="52" y="540.7248013114"/>
			<point x="103" y="540.7248013114" type="curve" smooth="yes"/>
			<point x="142" y="540.7248013114"/>
			<point x="162" y="569.7248013114"/>
			<point x="172" y="618.7248013114" type="curve" smooth="yes"/>
			<point x="183" y="673.7248013114"/>
			<point x="201" y="723.7248013114"/>
			<point x="243" y="775.7248013114" type="curve" smooth="yes"/>
			<point x="257" y="793.7248013114"/>
			<point x="262" y="809.7248013114"/>
			<point x="262" y="828.7248013114" type="curve" smooth="yes"/>
			<point x="262" y="877.7248013114"/>
			<point x="227" y="938.7248013114"/>
		</contour>
	</outline>
</glyph>
<glyph name="r.alt2" format="2">
	<advance width="528"/>
	<outline>
		<contour>
			<point x="183" y="92.0687001689" type="curve" smooth="yes"/>
			<point x="229" y="92.0687001689"/>
			<point x="240" y="116.0687001689"/>
			<point x="255" y="200.0687001689" type="curve" smooth="yes"/>
			<point x="273" y="306.0687001689"/>
			<point x="313" y="369.0687001689"/>
			<point x="478" y="436.0687001689" type="curve" smooth="yes"/>
			<point x="524" y="455.0687001689"/>
			<point x="532" y="484.0687001689"/>
			<point x="532" y="514.0687001689" type="curve" smooth="yes"/>
			<point x="532" y="581.0687001689"/>
			<point x="515" y="625.0687001689"/>
			<point x="465" y="625.0687001689" type="curve" smooth="yes"/>
			<point x="360" y="625.0687001689"/>
			<point x="233" y="522.0687001689"/>
			<point x="174" y="369.0687001689" type="curve"/>
			<point x="245" y="407.0687001689" type="line"/>
			<point x="218" y="565.0687001689"/>
			<point x="177" y="615.0687001689"/>
			<point x="78" y="615.0687001689" type="curve" smooth="yes"/>
			<point x="46" y="615.0687001689"/>
			<point x="21" y="598.0687001689"/>
			<point x="21" y="572.0687001689" type="curve" smooth="yes"/>
			<point x="21" y="553.0687001689"/>
			<point x="24" y="541.0687001689"/>
			<point x="40" y="507.0687001689" type="curve" smooth="yes"/>
			<point x="71" y="440.0687001689"/>
			<point x="81" y="358.0687001689"/>
			<point x="81" y="219.0687001689" type="curve" smooth="yes"/>
			<point x="81" y="149.0687001689"/>
			<point x="131" y="92.0687001689"/>
		</contour>
	</outline>
</glyph>
<glyph name="semicolon.alt2" format="2">
	<advance width="320"/>
	<outline>
		<contour>
			<point x="153" y="488.6416534301" type="curve" smooth="yes"/>
			<point x="236.5811965812" y="488.6416534301"/>
			<point x="280" y="531.9567219233"/>
			<point x="280" y="581.6416534301" type="curve" smooth="yes"/>
			<point x="280" y="632.4749867634"/>
			<point x="250.3103448276" y="681.6416534301"/>
			<point x="175" y="681.6416534301" type="curve" smooth="yes"/>
			<point x="100.8723404255" y="681.6416534301"/>
			<point x="41" y="644.0999867634"/>
			<point x="41" y="575.6416534301" type="curve" smooth="yes"/>
			<point x="41" y="517.3426843579"/>
			<point x="78.6393442623" y="488.6416534301"/>
		</contour>
		<contour>
			<point x="270" y="364.8893950722"/>
			<point x="223" y="407.7734551121"/>
			<point x="149" y="407.7734551121" type="curve" smooth="yes"/>
			<point x="95" y="407.7734551121"/>
			<point x="70" y="371.7734551121"/>
			<point x="70" y="316.7734551121" type="curve" smooth="yes"/>
			<point x="70" y="289.7734551121"/>
			<point x="80" y="216.7734551121"/>
			<point x="52" y="139.7734551121" type="curve" smooth="yes"/>
			<point x="41.2456901304" y="111.0952954598"/>
			<point x="37" y="92.2146315827"/>
			<point x="37" y="73.7734551121" type="curve" smooth="yes"/>
			<point x="37" y="41.4817884454"/>
			<point x="55" y="23.7734551121"/>
			<point x="93" y="23.7734551121" type="curve" smooth="yes"/>
			<point x="138" y="23.7734551121"/>
			<point x="185.7902388555" y="59.0319836598"/>
			<point x="212" y="100.7734551121" type="curve" smooth="yes"/>
			<point x="246.5376602016" y="156.6431995558"/>
			<point x="270" y="232.7431520818"/>
			<point x="270" y="301.7734551121" type="curve" smooth="yes"/>
		</contour>
	</outline>
</glyph>
<glyph name="w.alt1" format="2">
	<advance width="917"/>
	<outline>
		<contour>
			<point x="172" y="297.2541591905" type="curve" smooth="yes"/>
			<point x="218" y="203.2541591905"/>
			<point x="213" y="61.2541591905"/>
			<point x="280" y="-8.7458408095" type="curve" smooth="yes"/>
			<point x="303" y="-32.7458408095"/>
			<point x="201" y="-30.7458408095"/>
			<point x="216" y="-9.7458408095" type="curve" smooth="yes"/>
			<point x="258" y="56.2541591905"/>
			<point x="260" y="88.2541591905"/>
			<point x="301" y="196.2541591905" type="curve" smooth="yes"/>
			<point x="338" y="294.2541591905"/>
			<point x="372" y="354.2541591905"/>
			<point x="442" y="354.2541591905" type="curve" smooth="yes"/>
			<point x="516" y="354.2541591905"/>
			<point x="557" y="299.2541591905"/>
			<point x="592" y="209.2541591905" type="curve" smooth="yes"/>
			<point x="639" y="87.2541591905"/>
			<point x="631" y="27.2541591905"/>
			<point x="691" y="0.2541591905" type="curve" smooth="yes"/>
			<point x="749" y="-24.7458408095"/>
			<point x="606" y="-45.7458408095"/>
			<point x="635" y="-11.7458408095" type="curve" smooth="yes"/>
			<point x="682" y="43.2541591905"/>
			<point x="688" y="195.2541591905"/>
			<point x="720" y="270.2541591905" type="curve" smooth="yes"/>
			<point x="736" y="307.2541591905"/>
			<point x="771" y="356.2541591905"/>
			<point x="826" y="356.2541591905" type="curve" smooth="yes"/>
			<point x="874" y="356.2541591905"/>
			<point x="918" y="309.2541591905"/>
			<point x="918" y="260.2541591905" type="curve" smooth="yes"/>
			<point x="918" y="239.2541591905"/>
			<point x="907" y="219.2541591905"/>
			<point x="892" y="201.2541591905" type="curve" smooth="yes"/>
			<point x="845" y="143.2541591905"/>
			<point x="838" y="66.2541591905"/>
			<point x="816" y="-14.7458408095" type="curve" smooth="yes"/>
			<point x="780" y="-152.7458408095"/>
			<point x="726" y="-184.7458408095"/>
			<point x="682" y="-184.7458408095" type="curve" smooth="yes"/>
			<point x="632" y="-184.7458408095"/>
			<point x="592" y="-160.7458408095"/>
			<point x="549" y="-89.7458408095" type="curve" smooth="yes"/>
			<point x="484" y="17.2541591905"/>
			<point x="472" y="139.2541591905"/>
			<point x="437" y="180.2541591905" type="curve" smooth="yes"/>
			<point x="414" y="205.2541591905"/>
			<point x="488" y="210.2541591905"/>
			<point x="463" y="179.2541591905" type="curve" smooth="yes"/>
			<point x="416" y="114.2541591905"/>
			<point x="409" y="11.2541591905"/>
			<point x="357" y="-99.7458408095" type="curve" smooth="yes"/>
			<point x="332" y="-155.7458408095"/>
			<point x="293" y="-186.7458408095"/>
			<point x="253" y="-186.7458408095" type="curve" smooth="yes"/>
			<point x="172" y="-186.7458408095"/>
			<point x="122" y="-126.7458408095"/>
			<point x="84" y="10.2541591905" type="curve" smooth="yes"/>
			<point x="52" y="126.2541591905"/>
			<point x="35" y="187.2541591905"/>
			<point x="12" y="233.2541591905" type="curve" smooth="yes"/>
			<point x="-30" y="308.2541591905"/>
			<point x="16" y="357.2541591905"/>
			<point x="80" y="357.2541591905" type="curve" smooth="yes"/>
			<point x="124" y="357.2541591905"/>
			<point x="148" y="345.2541591905"/>
		</contour>
	</outline>
</glyph>
<glyph name="zero.alt1" format="2">
	<advance width="700"/>
	<outline>
		<contour>
			<point x="305" y="407.0022482501" type="curve" smooth="yes"/>
			<point x="223" y="351.0022482501"/>
			<point x="194" y="284.0022482501"/>
			<point x="194" y="190.0022482501" type="curve" smooth="yes"/>
			<point x="194" y="126.0022482501"/>
			<point x="234" y="80.0022482501"/>
			<point x="315" y="80.0022482501" type="curve" smooth="yes"/>
			<point x="406" y="80.0022482501"/>
			<point x="505" y="171.0022482501"/>
			<point x="505" y="337.0022482501" type="curve" smooth="yes"/>
			<point x="505" y="405.0022482501"/>
			<point x="479" y="459.0022482501"/>
			<point x="400" y="459.0022482501" type="curve" smooth="yes"/>
			<point x="320" y="459.0022482501"/>
			<point x="285" y="427.0022482501"/>
			<point x="247" y="395.0022482501" type="curve" smooth="yes"/>
			<point x="228" y="379.0022482501"/>
			<point x="208" y="366.0022482501"/>
			<point x="189" y="366.0022482501" type="curve" smooth="yes"/>
			<point x="122" y="366.0022482501"/>
			<point x="94" y="428.0022482501"/>
			<point x="94" y="468.0022482501" type="curve" smooth="yes"/>
			<point x="94" y="532.0022482501"/>
			<point x="202" y="631.0022482501"/>
			<point x="400" y="631.0022482501" type="curve" smooth="yes"/>
			<point x="594" y="631.0022482501"/>
			<point x="678" y="519.0022482501"/>
			<point x="678" y="337.0022482501" type="curve" smooth="yes"/>
			<point x="678" y="48.0022482501"/>
			<point x="494" y="-90.9977517499"/>
			<point x="317" y="-90.9977517499" type="curve" smooth="yes"/>
			<point x="140" y="-90.9977517499"/>
			<point x="21" y="-5.9977517499"/>
			<point x="21" y="190.0022482501" type="curve" smooth="yes"/>
			<point x="21" y="422.0022482501"/>
			<point x="193" y="543.0022482501"/>
			<point x="266" y="543.0022482501" type="curve" smooth="yes"/>
			<point x="315" y="543.0022482501"/>
			<point x="334" y="523.0022482501"/>
			<point x="334" y="469.0022482501" type="curve" smooth="yes"/>
			<point x="334" y="448.0022482501"/>
			<point x="324" y="420.0022482501"/>
		</contour>
	</outline>
</glyph>
